<?xml version="1.0" encoding="UTF-8" standalone="no"?>
<!DOCTYPE svg PUBLIC "-//W3C//DTD SVG 1.1//EN"
 "http://www.w3.org/Graphics/SVG/1.1/DTD/svg11.dtd">
<!-- Generated by graphviz version 2.26.3 (20100126.1600)
 -->
<!-- Title: _anonymous_0 Pages: 1 -->
<svg width="2539pt" height="382pt"
 viewBox="0.00 0.00 2539.00 382.00" xmlns="http://www.w3.org/2000/svg" xmlns:xlink="http://www.w3.org/1999/xlink">
<g id="graph1" class="graph" transform="scale(1 1) rotate(0) translate(4 378)">
<title>_anonymous_0</title>
<polygon fill="white" stroke="white" points="-4,5 -4,-378 2536,-378 2536,5 -4,5"/>
<!-- AdminDatasetVersion -->
<g id="node1" class="node"><title>AdminDatasetVersion</title>
<a xlink:href="./#AdminDatasetVersion" xlink:title="AdminDatasetVersion">
<ellipse fill="none" stroke="black" cx="282" cy="-268" rx="104.147" ry="18"/>
<text text-anchor="middle" x="282" y="-263.4" font-family="Helvetica,sans-Serif" font-size="14.00">AdminDatasetVersion</text>
</a>
</g>
<!-- http://www.w3.org/2000/01/rdf&#45;schema#Literal -->
<g id="node21" class="node"><title>http://www.w3.org/2000/01/rdf&#45;schema#Literal</title>
<a xlink:href="./#http://www.w3.org/2000/01/rdf-schema#Literal" xlink:title="http://www.w3.org/2000/01/rdf&#45;schema#Literal">
<ellipse fill="none" stroke="gray" cx="939" cy="-356" rx="208.796" ry="18"/>
<text text-anchor="middle" x="939" y="-351.4" font-family="Helvetica,sans-Serif" font-size="14.00" fill="gray">http://www.w3.org/2000/01/rdf&#45;schema#Literal</text>
</a>
</g>
<!-- AdminDatasetVersion&#45;&gt;http://www.w3.org/2000/01/rdf&#45;schema#Literal -->
<g id="edge62" class="edge"><title>AdminDatasetVersion&#45;&gt;http://www.w3.org/2000/01/rdf&#45;schema#Literal</title>
<a xlink:href="./#versionID" xlink:title="versionID">
<path fill="none" stroke="darkslategray" d="M254.501,-285.515C241.441,-295.923 230.708,-309.163 241,-320 257.692,-337.575 525.527,-347.236 724.461,-352.015"/>
<polygon fill="darkslategray" stroke="darkslategray" points="724.395,-355.515 734.475,-352.253 724.561,-348.517 724.395,-355.515"/>
</a>
<a xlink:href="./#versionID" xlink:title="versionID">
<text text-anchor="middle" x="271" y="-307.4" font-family="Helvetica,sans-Serif" font-size="14.00">versionID</text>
</a>
</g>
<!-- AdminDatasetVersion&#45;&gt;http://www.w3.org/2000/01/rdf&#45;schema#Literal -->
<g id="edge18" class="edge"><title>AdminDatasetVersion&#45;&gt;http://www.w3.org/2000/01/rdf&#45;schema#Literal</title>
<a xlink:href="./#adminDatasetVersionDescription" xlink:title="adminDatasetVersionDescription">
<path fill="none" stroke="darkslategray" d="M291.634,-286.043C299.048,-297.939 310.477,-312.637 325,-320 360.42,-337.957 562.006,-347.201 724.68,-351.794"/>
<polygon fill="darkslategray" stroke="darkslategray" points="724.752,-355.297 734.845,-352.076 724.946,-348.3 724.752,-355.297"/>
</a>
<a xlink:href="./#adminDatasetVersionDescription" xlink:title="adminDatasetVersionDescription">
<text text-anchor="middle" x="430.5" y="-307.4" font-family="Helvetica,sans-Serif" font-size="14.00">adminDatasetVersionDescription</text>
</a>
</g>
<!-- http://purl.org/dc/terms/PeriodOfTime -->
<g id="node43" class="node"><title>http://purl.org/dc/terms/PeriodOfTime</title>
<a xlink:href="./#http://purl.org/dc/terms/PeriodOfTime" xlink:title="http://purl.org/dc/terms/PeriodOfTime">
<ellipse fill="none" stroke="gray" cx="173" cy="-356" rx="173.242" ry="18"/>
<text text-anchor="middle" x="173" y="-351.4" font-family="Helvetica,sans-Serif" font-size="14.00" fill="gray">http://purl.org/dc/terms/PeriodOfTime</text>
</a>
</g>
<!-- AdminDatasetVersion&#45;&gt;http://purl.org/dc/terms/PeriodOfTime -->
<g id="edge58" class="edge"><title>AdminDatasetVersion&#45;&gt;http://purl.org/dc/terms/PeriodOfTime</title>
<a xlink:href="./#validity" xlink:title="validity">
<path fill="none" stroke="darkslategray" d="M218.843,-282.42C198.692,-288.371 180.031,-295.8 174,-304 169.035,-310.751 167.538,-319.442 167.648,-327.779"/>
<polygon fill="darkslategray" stroke="darkslategray" points="164.18,-328.305 168.506,-337.977 171.155,-327.718 164.18,-328.305"/>
</a>
<a xlink:href="./#validity" xlink:title="validity">
<text text-anchor="middle" x="196.5" y="-307.4" font-family="Helvetica,sans-Serif" font-size="14.00">validity</text>
</a>
</g>
<!-- AdminUnit -->
<g id="node2" class="node"><title>AdminUnit</title>
<a xlink:href="./#AdminUnit" xlink:title="AdminUnit">
<ellipse fill="none" stroke="black" cx="858" cy="-92" rx="55.1765" ry="18"/>
<text text-anchor="middle" x="858" y="-87.4" font-family="Helvetica,sans-Serif" font-size="14.00">AdminUnit</text>
</a>
</g>
<!-- AdminUnit&#45;&gt;AdminDatasetVersion -->
<g id="edge60" class="edge"><title>AdminUnit&#45;&gt;AdminDatasetVersion</title>
<a xlink:href="./#version" xlink:title="version">
<path fill="none" stroke="darkslategray" d="M808.087,-99.6894C743.46,-110.33 627.761,-131.719 532,-162 457.468,-185.568 374.604,-223.076 325.47,-246.578"/>
<polygon fill="darkslategray" stroke="darkslategray" points="323.896,-243.451 316.402,-250.94 326.931,-249.759 323.896,-243.451"/>
</a>
<a xlink:href="./#version" xlink:title="version">
<text text-anchor="middle" x="555" y="-175.4" font-family="Helvetica,sans-Serif" font-size="14.00">version</text>
</a>
</g>
<!-- AdminUnit&#45;&gt;AdminUnit -->
<g id="edge46" class="edge"><title>AdminUnit&#45;&gt;AdminUnit</title>
<a xlink:href="./#inAdminUnit" xlink:title="inAdminUnit">
<path fill="none" stroke="darkslategray" d="M909.168,-85.3555C921.685,-85.8477 931,-88.0625 931,-92 931,-94.7686 926.395,-96.6855 919.309,-97.7507"/>
<polygon fill="darkslategray" stroke="darkslategray" points="918.822,-94.28 909.168,-98.6445 919.436,-101.253 918.822,-94.28"/>
</a>
<a xlink:href="./#inAdminUnit" xlink:title="inAdminUnit">
<text text-anchor="middle" x="969.5" y="-87.4" font-family="Helvetica,sans-Serif" font-size="14.00">inAdminUnit</text>
</a>
</g>
<!-- Feature -->
<g id="node4" class="node"><title>Feature</title>
<a xlink:href="./#Feature" xlink:title="Feature">
<ellipse fill="none" stroke="black" cx="1202" cy="-180" rx="45.1145" ry="18"/>
<text text-anchor="middle" x="1202" y="-175.4" font-family="Helvetica,sans-Serif" font-size="14.00">Feature</text>
</a>
</g>
<!-- AdminUnit&#45;&gt;Feature -->
<g id="edge2" class="edge"><title>AdminUnit&#45;&gt;Feature</title>
<path fill="none" stroke="red" stroke-dasharray="5,2" d="M901.568,-103.145C966.226,-119.686 1087.14,-150.618 1154.18,-167.766"/>
<polygon fill="red" stroke="red" points="1153.5,-171.206 1164.06,-170.294 1155.24,-164.425 1153.5,-171.206"/>
</g>
<!-- AdminUnitLevel -->
<g id="node5" class="node"><title>AdminUnitLevel</title>
<a xlink:href="./#AdminUnitLevel" xlink:title="AdminUnitLevel">
<ellipse fill="none" stroke="black" cx="665" cy="-180" rx="77.8152" ry="18"/>
<text text-anchor="middle" x="665" y="-175.4" font-family="Helvetica,sans-Serif" font-size="14.00">AdminUnitLevel</text>
</a>
</g>
<!-- AdminUnit&#45;&gt;AdminUnitLevel -->
<g id="edge28" class="edge"><title>AdminUnit&#45;&gt;AdminUnitLevel</title>
<a xlink:href="./#atLevel" xlink:title="atLevel">
<path fill="none" stroke="darkslategray" d="M825.696,-106.729C793.879,-121.237 745.02,-143.514 709.529,-159.697"/>
<polygon fill="darkslategray" stroke="darkslategray" points="708.003,-156.546 700.356,-163.879 710.907,-162.915 708.003,-156.546"/>
</a>
<a xlink:href="./#atLevel" xlink:title="atLevel">
<text text-anchor="middle" x="802" y="-131.4" font-family="Helvetica,sans-Serif" font-size="14.00">atLevel</text>
</a>
</g>
<!-- AdminUnit&#45;&gt;http://www.w3.org/2000/01/rdf&#45;schema#Literal -->
<g id="edge54" class="edge"><title>AdminUnit&#45;&gt;http://www.w3.org/2000/01/rdf&#45;schema#Literal</title>
<a xlink:href="./#pcode" xlink:title="pcode">
<path fill="none" stroke="darkslategray" d="M911.973,-95.7717C1086.35,-108.478 1632.8,-152.51 1797,-216 1821.72,-225.559 1833.71,-226.514 1846,-250 1853.42,-264.176 1856.87,-274.259 1846,-286 1822.22,-311.687 1396.23,-335.374 1136.63,-347.507"/>
<polygon fill="darkslategray" stroke="darkslategray" points="1136.14,-344.026 1126.32,-347.987 1136.47,-351.018 1136.14,-344.026"/>
</a>
<a xlink:href="./#pcode" xlink:title="pcode">
<text text-anchor="middle" x="1852" y="-219.4" font-family="Helvetica,sans-Serif" font-size="14.00">pcode</text>
</a>
</g>
<!-- http://www.w3.org/2003/01/geo/wgs84_pos#SpatialThing -->
<g id="node11" class="node"><title>http://www.w3.org/2003/01/geo/wgs84_pos#SpatialThing</title>
<a xlink:href="./#Feature" xlink:title="http://www.w3.org/2003/01/geo/wgs84_pos#SpatialThing">
<ellipse fill="none" stroke="gray" cx="1584" cy="-268" rx="253.07" ry="18"/>
<text text-anchor="middle" x="1584" y="-263.4" font-family="Helvetica,sans-Serif" font-size="14.00" fill="gray">http://www.w3.org/2003/01/geo/wgs84_pos#SpatialThing</text>
</a>
</g>
<!-- Feature&#45;&gt;http://www.w3.org/2003/01/geo/wgs84_pos#SpatialThing -->
<g id="edge8" class="edge"><title>Feature&#45;&gt;http://www.w3.org/2003/01/geo/wgs84_pos#SpatialThing</title>
<path fill="none" stroke="red" stroke-dasharray="5,2" d="M1241.09,-189.004C1301.44,-202.909 1418.77,-229.935 1499.22,-248.469"/>
<polygon fill="red" stroke="red" points="1498.8,-251.965 1509.33,-250.799 1500.37,-245.143 1498.8,-251.965"/>
</g>
<!-- Geometry -->
<g id="node13" class="node"><title>Geometry</title>
<a xlink:href="./#Geometry" xlink:title="Geometry">
<ellipse fill="none" stroke="black" cx="1947" cy="-268" rx="53.838" ry="18"/>
<text text-anchor="middle" x="1947" y="-263.4" font-family="Helvetica,sans-Serif" font-size="14.00">Geometry</text>
</a>
</g>
<!-- Feature&#45;&gt;Geometry -->
<g id="edge44" class="edge"><title>Feature&#45;&gt;Geometry</title>
<a xlink:href="./#hasGeometry" xlink:title="hasGeometry">
<path fill="none" stroke="darkslategray" d="M1246.25,-183.763C1350.83,-192.885 1621.4,-217.817 1846,-250 1860.26,-252.043 1875.59,-254.592 1889.89,-257.122"/>
<polygon fill="darkslategray" stroke="darkslategray" points="1889.63,-260.632 1900.09,-258.955 1890.87,-253.742 1889.63,-260.632"/>
</a>
<a xlink:href="./#hasGeometry" xlink:title="hasGeometry">
<text text-anchor="middle" x="1749" y="-219.4" font-family="Helvetica,sans-Serif" font-size="14.00">hasGeometry</text>
</a>
</g>
<!-- Feature&#45;&gt;http://www.w3.org/2000/01/rdf&#45;schema#Literal -->
<g id="edge38" class="edge"><title>Feature&#45;&gt;http://www.w3.org/2000/01/rdf&#45;schema#Literal</title>
<a xlink:href="./#featureAltName" xlink:title="featureAltName">
<path fill="none" stroke="darkslategray" d="M1159.55,-186.146C1095.72,-196.302 979.622,-218.629 953,-250 934.877,-271.356 933.254,-304.362 934.977,-327.866"/>
<polygon fill="darkslategray" stroke="darkslategray" points="931.503,-328.307 935.956,-337.92 938.47,-327.628 931.503,-328.307"/>
</a>
<a xlink:href="./#featureAltName" xlink:title="featureAltName">
<text text-anchor="middle" x="1005" y="-263.4" font-family="Helvetica,sans-Serif" font-size="14.00">featureAltName</text>
</a>
</g>
<!-- Feature&#45;&gt;http://www.w3.org/2000/01/rdf&#45;schema#Literal -->
<g id="edge40" class="edge"><title>Feature&#45;&gt;http://www.w3.org/2000/01/rdf&#45;schema#Literal</title>
<a xlink:href="./#featureName" xlink:title="featureName">
<path fill="none" stroke="darkslategray" d="M1175.83,-194.654C1153.06,-207.898 1119.62,-228.555 1093,-250 1075.38,-264.195 1074.87,-272.119 1057,-286 1033.92,-303.93 1005.85,-320.755 982.882,-333.414"/>
<polygon fill="darkslategray" stroke="darkslategray" points="981.142,-330.376 974.028,-338.228 984.486,-336.526 981.142,-330.376"/>
</a>
<a xlink:href="./#featureName" xlink:title="featureName">
<text text-anchor="middle" x="1136.5" y="-263.4" font-family="Helvetica,sans-Serif" font-size="14.00">featureName</text>
</a>
</g>
<!-- Feature&#45;&gt;http://www.w3.org/2000/01/rdf&#45;schema#Literal -->
<g id="edge42" class="edge"><title>Feature&#45;&gt;http://www.w3.org/2000/01/rdf&#45;schema#Literal</title>
<a xlink:href="./#featureRefName" xlink:title="featureRefName">
<path fill="none" stroke="darkslategray" d="M1203.51,-198.27C1204.39,-221.65 1202.21,-261.991 1180,-286 1160.39,-307.204 1096.45,-325.22 1039.36,-337.663"/>
<polygon fill="darkslategray" stroke="darkslategray" points="1038.58,-334.251 1029.53,-339.766 1040.04,-341.096 1038.58,-334.251"/>
</a>
<a xlink:href="./#featureRefName" xlink:title="featureRefName">
<text text-anchor="middle" x="1253.5" y="-263.4" font-family="Helvetica,sans-Serif" font-size="14.00">featureRefName</text>
</a>
</g>
<!-- Country -->
<g id="node9" class="node"><title>Country</title>
<a xlink:href="./#Country" xlink:title="Country">
<ellipse fill="none" stroke="black" cx="858" cy="-268" rx="45.1145" ry="18"/>
<text text-anchor="middle" x="858" y="-263.4" font-family="Helvetica,sans-Serif" font-size="14.00">Country</text>
</a>
</g>
<!-- AdminUnitLevel&#45;&gt;Country -->
<g id="edge20" class="edge"><title>AdminUnitLevel&#45;&gt;Country</title>
<a xlink:href="./#adminUnitLevelCountry" xlink:title="adminUnitLevelCountry">
<path fill="none" stroke="darkslategray" d="M670.222,-198.206C674.477,-209.701 681.671,-223.869 693,-232 731.821,-259.863 752.496,-239.005 799,-250 803.641,-251.097 808.453,-252.357 813.235,-253.691"/>
<polygon fill="darkslategray" stroke="darkslategray" points="812.368,-257.083 822.947,-256.501 814.314,-250.359 812.368,-257.083"/>
</a>
<a xlink:href="./#adminUnitLevelCountry" xlink:title="adminUnitLevelCountry">
<text text-anchor="middle" x="768.5" y="-219.4" font-family="Helvetica,sans-Serif" font-size="14.00">adminUnitLevelCountry</text>
</a>
</g>
<!-- AdminUnitLevel&#45;&gt;http://www.w3.org/2000/01/rdf&#45;schema#Literal -->
<g id="edge22" class="edge"><title>AdminUnitLevel&#45;&gt;http://www.w3.org/2000/01/rdf&#45;schema#Literal</title>
<a xlink:href="./#adminUnitLevelNumber" xlink:title="adminUnitLevelNumber">
<path fill="none" stroke="darkslategray" d="M656.053,-198.259C646.217,-221.259 634.25,-260.812 654,-286 673.736,-311.17 742.667,-328.489 807.79,-339.603"/>
<polygon fill="darkslategray" stroke="darkslategray" points="807.343,-343.076 817.782,-341.266 808.492,-336.171 807.343,-343.076"/>
</a>
<a xlink:href="./#adminUnitLevelNumber" xlink:title="adminUnitLevelNumber">
<text text-anchor="middle" x="729" y="-263.4" font-family="Helvetica,sans-Serif" font-size="14.00">adminUnitLevelNumber</text>
</a>
</g>
<!-- AdminUnitLevel&#45;&gt;http://www.w3.org/2000/01/rdf&#45;schema#Literal -->
<g id="edge24" class="edge"><title>AdminUnitLevel&#45;&gt;http://www.w3.org/2000/01/rdf&#45;schema#Literal</title>
<a xlink:href="./#adminUnitLevelTitle" xlink:title="adminUnitLevelTitle">
<path fill="none" stroke="darkslategray" d="M612.422,-193.305C554.828,-210.392 474.989,-243.039 510,-286 527.965,-308.044 673.5,-328.397 790.152,-341.408"/>
<polygon fill="darkslategray" stroke="darkslategray" points="789.951,-344.907 800.275,-342.527 790.72,-337.949 789.951,-344.907"/>
</a>
<a xlink:href="./#adminUnitLevelTitle" xlink:title="adminUnitLevelTitle">
<text text-anchor="middle" x="574.5" y="-263.4" font-family="Helvetica,sans-Serif" font-size="14.00">adminUnitLevelTitle</text>
</a>
</g>
<!-- BoundingBox -->
<g id="node6" class="node"><title>BoundingBox</title>
<a xlink:href="./#BoundingBox" xlink:title="BoundingBox">
<ellipse fill="none" stroke="black" cx="2032" cy="-92" rx="67.082" ry="18"/>
<text text-anchor="middle" x="2032" y="-87.4" font-family="Helvetica,sans-Serif" font-size="14.00">BoundingBox</text>
</a>
</g>
<!-- Polygon -->
<g id="node8" class="node"><title>Polygon</title>
<a xlink:href="./#Polygon" xlink:title="Polygon">
<ellipse fill="none" stroke="black" cx="2027" cy="-180" rx="45.1145" ry="18"/>
<text text-anchor="middle" x="2027" y="-175.4" font-family="Helvetica,sans-Serif" font-size="14.00">Polygon</text>
</a>
</g>
<!-- BoundingBox&#45;&gt;Polygon -->
<g id="edge4" class="edge"><title>BoundingBox&#45;&gt;Polygon</title>
<path fill="none" stroke="red" stroke-dasharray="5,2" d="M2030.96,-110.234C2030.29,-122.151 2029.39,-137.962 2028.62,-151.518"/>
<polygon fill="red" stroke="red" points="2025.11,-151.607 2028.03,-161.79 2032.1,-152.004 2025.11,-151.607"/>
</g>
<!-- Polygon&#45;&gt;Geometry -->
<g id="edge14" class="edge"><title>Polygon&#45;&gt;Geometry</title>
<path fill="none" stroke="red" stroke-dasharray="5,2" d="M2011.58,-196.967C1999.78,-209.947 1983.32,-228.05 1969.97,-242.732"/>
<polygon fill="red" stroke="red" points="1967.06,-240.729 1962.93,-250.482 1972.24,-245.437 1967.06,-240.729"/>
</g>
<!-- Country&#45;&gt;AdminUnit -->
<g id="edge6" class="edge"><title>Country&#45;&gt;AdminUnit</title>
<path fill="none" stroke="red" stroke-dasharray="5,2" d="M858,-249.927C858,-219.351 858,-157.186 858,-120.631"/>
<polygon fill="red" stroke="red" points="861.5,-120.172 858,-110.172 854.5,-120.172 861.5,-120.172"/>
</g>
<!-- Geometry&#45;&gt;Geometry -->
<g id="edge32" class="edge"><title>Geometry&#45;&gt;Geometry</title>
<a xlink:href="./#contains" xlink:title="contains">
<path fill="none" stroke="darkslategray" d="M2001.01,-266.567C2011.53,-266.733 2019,-267.211 2019,-268 2019,-268.493 2016.08,-268.865 2011.32,-269.115"/>
<polygon fill="darkslategray" stroke="darkslategray" points="2010.89,-265.626 2001.01,-269.433 2011.11,-272.623 2010.89,-265.626"/>
</a>
<a xlink:href="./#contains" xlink:title="contains">
<text text-anchor="middle" x="2046.5" y="-263.4" font-family="Helvetica,sans-Serif" font-size="14.00">contains</text>
</a>
</g>
<!-- Geometry&#45;&gt;Geometry -->
<g id="edge34" class="edge"><title>Geometry&#45;&gt;Geometry</title>
<a xlink:href="./#crosses" xlink:title="crosses">
<path fill="none" stroke="darkslategray" d="M1988.77,-256.519C2027.37,-251.693 2074,-255.52 2074,-268 2074,-279.408 2035.04,-283.586 1998.86,-280.534"/>
<polygon fill="darkslategray" stroke="darkslategray" points="1999.08,-277.037 1988.77,-279.481 1998.35,-283.999 1999.08,-277.037"/>
</a>
<a xlink:href="./#crosses" xlink:title="crosses">
<text text-anchor="middle" x="2099" y="-263.4" font-family="Helvetica,sans-Serif" font-size="14.00">crosses</text>
</a>
</g>
<!-- Geometry&#45;&gt;Geometry -->
<g id="edge36" class="edge"><title>Geometry&#45;&gt;Geometry</title>
<a xlink:href="./#equals" xlink:title="equals">
<path fill="none" stroke="darkslategray" d="M1989.42,-256.809C2044.27,-249.231 2124,-252.961 2124,-268 2124,-282.128 2053.64,-286.276 1999.63,-280.443"/>
<polygon fill="darkslategray" stroke="darkslategray" points="1999.77,-276.934 1989.42,-279.191 1998.92,-283.882 1999.77,-276.934"/>
</a>
<a xlink:href="./#equals" xlink:title="equals">
<text text-anchor="middle" x="2145.5" y="-263.4" font-family="Helvetica,sans-Serif" font-size="14.00">equals</text>
</a>
</g>
<!-- Geometry&#45;&gt;Geometry -->
<g id="edge48" class="edge"><title>Geometry&#45;&gt;Geometry</title>
<a xlink:href="./#intersects" xlink:title="intersects">
<path fill="none" stroke="darkslategray" d="M1989.54,-256.904C2057,-247.006 2167,-250.705 2167,-268 2167,-284.45 2067.48,-288.6 1999.71,-280.449"/>
<polygon fill="darkslategray" stroke="darkslategray" points="1999.91,-276.946 1989.54,-279.096 1998.99,-283.885 1999.91,-276.946"/>
</a>
<a xlink:href="./#intersects" xlink:title="intersects">
<text text-anchor="middle" x="2199" y="-263.4" font-family="Helvetica,sans-Serif" font-size="14.00">intersects</text>
</a>
</g>
<!-- Geometry&#45;&gt;Geometry -->
<g id="edge50" class="edge"><title>Geometry&#45;&gt;Geometry</title>
<a xlink:href="./#near" xlink:title="near">
<path fill="none" stroke="darkslategray" d="M1990.13,-257.164C2074.08,-244.818 2231,-248.43 2231,-268 2231,-286.806 2086.1,-290.876 2000.28,-280.21"/>
<polygon fill="darkslategray" stroke="darkslategray" points="2000.5,-276.708 1990.13,-278.836 1999.57,-283.645 2000.5,-276.708"/>
</a>
<a xlink:href="./#near" xlink:title="near">
<text text-anchor="middle" x="2246" y="-263.4" font-family="Helvetica,sans-Serif" font-size="14.00">near</text>
</a>
</g>
<!-- Geometry&#45;&gt;Geometry -->
<g id="edge52" class="edge"><title>Geometry&#45;&gt;Geometry</title>
<a xlink:href="./#overlaps" xlink:title="overlaps">
<path fill="none" stroke="darkslategray" d="M1990.08,-256.998C2081.85,-242.751 2261,-246.418 2261,-268 2261,-288.823 2094.23,-292.969 2000.08,-280.438"/>
<polygon fill="darkslategray" stroke="darkslategray" points="2000.48,-276.96 1990.08,-279.002 1999.49,-283.889 2000.48,-276.96"/>
</a>
<a xlink:href="./#overlaps" xlink:title="overlaps">
<text text-anchor="middle" x="2288.5" y="-263.4" font-family="Helvetica,sans-Serif" font-size="14.00">overlaps</text>
</a>
</g>
<!-- Geometry&#45;&gt;Geometry -->
<g id="edge56" class="edge"><title>Geometry&#45;&gt;Geometry</title>
<a xlink:href="./#touches" xlink:title="touches">
<path fill="none" stroke="darkslategray" d="M1990.15,-257.096C2094.49,-240.658 2316,-244.293 2316,-268 2316,-290.966 2108.12,-295.095 2000.26,-280.387"/>
<polygon fill="darkslategray" stroke="darkslategray" points="2000.55,-276.891 1990.15,-278.904 1999.53,-283.817 2000.55,-276.891"/>
</a>
<a xlink:href="./#touches" xlink:title="touches">
<text text-anchor="middle" x="2342" y="-263.4" font-family="Helvetica,sans-Serif" font-size="14.00">touches</text>
</a>
</g>
<!-- Geometry&#45;&gt;Geometry -->
<g id="edge64" class="edge"><title>Geometry&#45;&gt;Geometry</title>
<a xlink:href="./#within" xlink:title="within">
<path fill="none" stroke="darkslategray" d="M1990.2,-257.124C2105.82,-238.593 2368,-242.219 2368,-268 2368,-293.051 2120.46,-297.184 2000.37,-280.398"/>
<polygon fill="darkslategray" stroke="darkslategray" points="2000.61,-276.895 1990.2,-278.876 1999.57,-283.818 2000.61,-276.895"/>
</a>
<a xlink:href="./#within" xlink:title="within">
<text text-anchor="middle" x="2386.5" y="-263.4" font-family="Helvetica,sans-Serif" font-size="14.00">within</text>
</a>
</g>
<!-- Geometry&#45;&gt;http://www.w3.org/2000/01/rdf&#45;schema#Literal -->
<g id="edge26" class="edge"><title>Geometry&#45;&gt;http://www.w3.org/2000/01/rdf&#45;schema#Literal</title>
<a xlink:href="./#asWKT" xlink:title="asWKT">
<path fill="none" stroke="darkslategray" d="M1930.64,-285.243C1917.87,-297.419 1899,-312.801 1879,-320 1813.18,-343.695 1414.4,-351.799 1157.84,-354.567"/>
<polygon fill="darkslategray" stroke="darkslategray" points="1157.59,-351.069 1147.63,-354.675 1157.67,-358.069 1157.59,-351.069"/>
</a>
<a xlink:href="./#asWKT" xlink:title="asWKT">
<text text-anchor="middle" x="1931" y="-307.4" font-family="Helvetica,sans-Serif" font-size="14.00">asWKT</text>
</a>
</g>
<!-- Line -->
<g id="node14" class="node"><title>Line</title>
<a xlink:href="./#Line" xlink:title="Line">
<ellipse fill="none" stroke="black" cx="2119" cy="-180" rx="28.8453" ry="18"/>
<text text-anchor="middle" x="2119" y="-175.4" font-family="Helvetica,sans-Serif" font-size="14.00">Line</text>
</a>
</g>
<!-- Line&#45;&gt;Geometry -->
<g id="edge10" class="edge"><title>Line&#45;&gt;Geometry</title>
<path fill="none" stroke="red" stroke-dasharray="5,2" d="M2096.51,-191.504C2068.46,-205.856 2020.05,-230.627 1985.92,-248.086"/>
<polygon fill="red" stroke="red" points="1984.01,-245.131 1976.71,-252.802 1987.2,-251.363 1984.01,-245.131"/>
</g>
<!-- Point -->
<g id="node16" class="node"><title>Point</title>
<a xlink:href="./#Point" xlink:title="Point">
<ellipse fill="none" stroke="black" cx="1931" cy="-180" rx="33.0404" ry="18"/>
<text text-anchor="middle" x="1931" y="-175.4" font-family="Helvetica,sans-Serif" font-size="14.00">Point</text>
</a>
</g>
<!-- Point&#45;&gt;Geometry -->
<g id="edge12" class="edge"><title>Point&#45;&gt;Geometry</title>
<path fill="none" stroke="red" stroke-dasharray="5,2" d="M1934.32,-198.234C1936.5,-210.269 1939.41,-226.275 1941.89,-239.92"/>
<polygon fill="red" stroke="red" points="1938.46,-240.577 1943.69,-249.79 1945.34,-239.325 1938.46,-240.577"/>
</g>
<!-- PopulatedPlace -->
<g id="node19" class="node"><title>PopulatedPlace</title>
<a xlink:href="./#PopulatedPlace" xlink:title="PopulatedPlace">
<ellipse fill="none" stroke="black" cx="858" cy="-18" rx="79.8276" ry="18"/>
<text text-anchor="middle" x="858" y="-13.4" font-family="Helvetica,sans-Serif" font-size="14.00">PopulatedPlace</text>
</a>
</g>
<!-- PopulatedPlace&#45;&gt;AdminUnit -->
<g id="edge16" class="edge"><title>PopulatedPlace&#45;&gt;AdminUnit</title>
<path fill="none" stroke="red" stroke-dasharray="5,2" d="M858,-36.2921C858,-44.5365 858,-54.4624 858,-63.6378"/>
<polygon fill="red" stroke="red" points="854.5,-63.9182 858,-73.9183 861.5,-63.9183 854.5,-63.9182"/>
</g>
<!-- Situation -->
<g id="node28" class="node"><title>Situation</title>
<a xlink:href="./#Situation" xlink:title="Situation">
<ellipse fill="none" stroke="gray" cx="1898" cy="-92" rx="49.1393" ry="18"/>
<text text-anchor="middle" x="1898" y="-87.4" font-family="Helvetica,sans-Serif" font-size="14.00" fill="gray">Situation</text>
</a>
</g>
<!-- Situation&#45;&gt;Feature -->
<g id="edge30" class="edge"><title>Situation&#45;&gt;Feature</title>
<a xlink:href="./#atLocation" xlink:title="atLocation">
<path fill="none" stroke="darkslategray" d="M1851.52,-97.8763C1727.13,-113.604 1387.11,-156.595 1255.25,-173.267"/>
<polygon fill="darkslategray" stroke="darkslategray" points="1254.48,-169.836 1245,-174.563 1255.36,-176.781 1254.48,-169.836"/>
</a>
<a xlink:href="./#atLocation" xlink:title="atLocation">
<text text-anchor="middle" x="1647" y="-131.4" font-family="Helvetica,sans-Serif" font-size="14.00">atLocation</text>
</a>
</g>
</g>
</svg>
