<?xml version="1.0" encoding="UTF-8" standalone="no"?>
<!DOCTYPE svg PUBLIC "-//W3C//DTD SVG 1.1//EN"
 "http://www.w3.org/Graphics/SVG/1.1/DTD/svg11.dtd">
<!-- Generated by graphviz version 2.26.3 (20100126.1600)
 -->
<!-- Title: _anonymous_0 Pages: 1 -->
<svg width="2814pt" height="368pt"
 viewBox="0.00 0.00 2814.00 368.00" xmlns="http://www.w3.org/2000/svg" xmlns:xlink="http://www.w3.org/1999/xlink">
<g id="graph1" class="graph" transform="scale(1 1) rotate(0) translate(4 364)">
<title>_anonymous_0</title>
<polygon fill="white" stroke="white" points="-4,5 -4,-364 2811,-364 2811,5 -4,5"/>
<!-- AffectedPopulation -->
<g id="node1" class="node"><title>AffectedPopulation</title>
<a xlink:href="./#AffectedPopulation" xlink:title="AffectedPopulation">
<ellipse fill="none" stroke="black" cx="2332" cy="-166" rx="94.7578" ry="18"/>
<text text-anchor="middle" x="2332" y="-161.4" font-family="Helvetica,sans-Serif" font-size="14.00">AffectedPopulation</text>
</a>
</g>
<!-- Population -->
<g id="node3" class="node"><title>Population</title>
<a xlink:href="./#Population" xlink:title="Population">
<ellipse fill="none" stroke="black" cx="1834" cy="-254" rx="57.0197" ry="18"/>
<text text-anchor="middle" x="1834" y="-249.4" font-family="Helvetica,sans-Serif" font-size="14.00">Population</text>
</a>
</g>
<!-- AffectedPopulation&#45;&gt;Population -->
<g id="edge2" class="edge"><title>AffectedPopulation&#45;&gt;Population</title>
<path fill="none" stroke="red" stroke-dasharray="5,2" d="M2323.48,-184.176C2316.91,-195.972 2306.65,-210.496 2293,-218 2259.52,-236.409 2020.07,-247.4 1900.95,-251.785"/>
<polygon fill="red" stroke="red" points="1900.71,-248.291 1890.84,-252.152 1900.96,-255.287 1900.71,-248.291"/>
</g>
<!-- Emergency -->
<g id="node44" class="node"><title>Emergency</title>
<a xlink:href="./#Emergency" xlink:title="Emergency">
<ellipse fill="none" stroke="gray" cx="2340" cy="-254" rx="59.8749" ry="18"/>
<text text-anchor="middle" x="2340" y="-249.4" font-family="Helvetica,sans-Serif" font-size="14.00" fill="gray">Emergency</text>
</a>
</g>
<!-- AffectedPopulation&#45;&gt;Emergency -->
<g id="edge40" class="edge"><title>AffectedPopulation&#45;&gt;Emergency</title>
<a xlink:href="./#affectedBy" xlink:title="affectedBy">
<path fill="none" stroke="darkslategray" d="M2333.66,-184.234C2334.74,-196.151 2336.18,-211.962 2337.41,-225.518"/>
<polygon fill="darkslategray" stroke="darkslategray" points="2333.95,-226.148 2338.34,-235.79 2340.92,-225.514 2333.95,-226.148"/>
</a>
<a xlink:href="./#affectedBy" xlink:title="affectedBy">
<text text-anchor="middle" x="2372.5" y="-205.4" font-family="Helvetica,sans-Serif" font-size="14.00">affectedBy</text>
</a>
</g>
<!-- Population&#45;&gt;Population -->
<g id="edge58" class="edge"><title>Population&#45;&gt;Population</title>
<a xlink:href="./#includes" xlink:title="includes">
<path fill="none" stroke="darkslategray" d="M1884.83,-245.811C1898.56,-246.243 1909,-248.973 1909,-254 1909,-257.692 1903.37,-260.145 1894.94,-261.358"/>
<polygon fill="darkslategray" stroke="darkslategray" points="1894.51,-257.882 1884.83,-262.189 1895.08,-264.858 1894.51,-257.882"/>
</a>
<a xlink:href="./#includes" xlink:title="includes">
<text text-anchor="middle" x="1935" y="-249.4" font-family="Helvetica,sans-Serif" font-size="14.00">includes</text>
</a>
</g>
<!-- Sex -->
<g id="node15" class="node"><title>Sex</title>
<a xlink:href="./#Sex" xlink:title="Sex">
<ellipse fill="none" stroke="black" cx="243" cy="-342" rx="27.0036" ry="18"/>
<text text-anchor="middle" x="243" y="-337.4" font-family="Helvetica,sans-Serif" font-size="14.00">Sex</text>
</a>
</g>
<!-- Population&#45;&gt;Sex -->
<g id="edge70" class="edge"><title>Population&#45;&gt;Sex</title>
<a xlink:href="./#sexCategory" xlink:title="sexCategory">
<path fill="none" stroke="darkslategray" d="M1777.11,-256.288C1690.38,-259.764 1519.84,-266.548 1375,-272 1264.12,-276.174 983.516,-262.564 876,-290 860.593,-293.932 859.359,-301.885 844,-306 736.896,-334.691 394.546,-340.553 280.422,-341.719"/>
<polygon fill="darkslategray" stroke="darkslategray" points="280.072,-338.222 270.106,-341.817 280.139,-345.221 280.072,-338.222"/>
</a>
<a xlink:href="./#sexCategory" xlink:title="sexCategory">
<text text-anchor="middle" x="917.5" y="-293.4" font-family="Helvetica,sans-Serif" font-size="14.00">sexCategory</text>
</a>
</g>
<!-- http://xmlns.com/foaf/0.1/Group -->
<g id="node36" class="node"><title>http://xmlns.com/foaf/0.1/Group</title>
<a xlink:href="./#Population" xlink:title="http://xmlns.com/foaf/0.1/Group">
<ellipse fill="none" stroke="gray" cx="1718" cy="-342" rx="146.239" ry="18"/>
<text text-anchor="middle" x="1718" y="-337.4" font-family="Helvetica,sans-Serif" font-size="14.00" fill="gray">http://xmlns.com/foaf/0.1/Group</text>
</a>
</g>
<!-- Population&#45;&gt;http://xmlns.com/foaf/0.1/Group -->
<g id="edge32" class="edge"><title>Population&#45;&gt;http://xmlns.com/foaf/0.1/Group</title>
<path fill="none" stroke="red" stroke-dasharray="5,2" d="M1862.6,-269.817C1877.22,-279.948 1890.03,-293.495 1880,-306 1872.78,-315.005 1854.2,-321.9 1832.09,-327.124"/>
<polygon fill="red" stroke="red" points="1831.07,-323.763 1822.06,-329.335 1832.58,-330.599 1831.07,-323.763"/>
</g>
<!-- http://www.w3.org/2000/01/rdf&#45;schema#Literal -->
<g id="node42" class="node"><title>http://www.w3.org/2000/01/rdf&#45;schema#Literal</title>
<a xlink:href="./#http://www.w3.org/2000/01/rdf-schema#Literal" xlink:title="http://www.w3.org/2000/01/rdf&#45;schema#Literal">
<ellipse fill="none" stroke="gray" cx="1105" cy="-342" rx="208.796" ry="18"/>
<text text-anchor="middle" x="1105" y="-337.4" font-family="Helvetica,sans-Serif" font-size="14.00" fill="gray">http://www.w3.org/2000/01/rdf&#45;schema#Literal</text>
</a>
</g>
<!-- Population&#45;&gt;http://www.w3.org/2000/01/rdf&#45;schema#Literal -->
<g id="edge52" class="edge"><title>Population&#45;&gt;http://www.w3.org/2000/01/rdf&#45;schema#Literal</title>
<a xlink:href="./#householdCount" xlink:title="householdCount">
<path fill="none" stroke="darkslategray" d="M1804.47,-269.423C1793.68,-275.435 1781.54,-282.644 1771,-290 1761.95,-296.32 1762.26,-301.928 1752,-306 1731.22,-314.244 1486.82,-326.129 1304.5,-333.956"/>
<polygon fill="darkslategray" stroke="darkslategray" points="1304.34,-330.459 1294.5,-334.384 1304.64,-337.453 1304.34,-330.459"/>
</a>
<a xlink:href="./#householdCount" xlink:title="householdCount">
<text text-anchor="middle" x="1823.5" y="-293.4" font-family="Helvetica,sans-Serif" font-size="14.00">householdCount</text>
</a>
</g>
<!-- Population&#45;&gt;http://www.w3.org/2000/01/rdf&#45;schema#Literal -->
<g id="edge60" class="edge"><title>Population&#45;&gt;http://www.w3.org/2000/01/rdf&#45;schema#Literal</title>
<a xlink:href="./#method" xlink:title="method">
<path fill="none" stroke="darkslategray" d="M1777.24,-256.323C1682.59,-260.661 1496.72,-271.292 1434,-290 1419.52,-294.319 1418.41,-301.464 1404,-306 1377.24,-314.421 1320.38,-322.108 1263.35,-328.196"/>
<polygon fill="darkslategray" stroke="darkslategray" points="1262.67,-324.749 1253.09,-329.275 1263.4,-331.711 1262.67,-324.749"/>
</a>
<a xlink:href="./#method" xlink:title="method">
<text text-anchor="middle" x="1459" y="-293.4" font-family="Helvetica,sans-Serif" font-size="14.00">method</text>
</a>
</g>
<!-- Population&#45;&gt;http://www.w3.org/2000/01/rdf&#45;schema#Literal -->
<g id="edge64" class="edge"><title>Population&#45;&gt;http://www.w3.org/2000/01/rdf&#45;schema#Literal</title>
<a xlink:href="./#personCount" xlink:title="personCount">
<path fill="none" stroke="darkslategray" d="M1777.71,-256.844C1697.64,-261.458 1555.2,-271.928 1507,-290 1495.34,-294.372 1495.69,-301.715 1484,-306 1449.48,-318.651 1373.38,-327.105 1298.36,-332.621"/>
<polygon fill="darkslategray" stroke="darkslategray" points="1297.99,-329.138 1288.27,-333.346 1298.5,-336.12 1297.99,-329.138"/>
</a>
<a xlink:href="./#personCount" xlink:title="personCount">
<text text-anchor="middle" x="1548.5" y="-293.4" font-family="Helvetica,sans-Serif" font-size="14.00">personCount</text>
</a>
</g>
<!-- Population&#45;&gt;http://www.w3.org/2000/01/rdf&#45;schema#Literal -->
<g id="edge68" class="edge"><title>Population&#45;&gt;http://www.w3.org/2000/01/rdf&#45;schema#Literal</title>
<a xlink:href="./#populationDescription" xlink:title="populationDescription">
<path fill="none" stroke="darkslategray" d="M1779.4,-259.347C1722.8,-265.488 1638.54,-276.478 1609,-290 1598.96,-294.595 1600.22,-301.834 1590,-306 1562.95,-317.022 1423.47,-326.646 1300.99,-333.163"/>
<polygon fill="darkslategray" stroke="darkslategray" points="1300.5,-329.684 1290.7,-333.706 1300.87,-336.674 1300.5,-329.684"/>
</a>
<a xlink:href="./#populationDescription" xlink:title="populationDescription">
<text text-anchor="middle" x="1678.5" y="-293.4" font-family="Helvetica,sans-Serif" font-size="14.00">populationDescription</text>
</a>
</g>
<!-- Feature -->
<g id="node48" class="node"><title>Feature</title>
<a xlink:href="./#Feature" xlink:title="Feature">
<ellipse fill="none" stroke="gray" cx="2193" cy="-342" rx="45.1145" ry="18"/>
<text text-anchor="middle" x="2193" y="-337.4" font-family="Helvetica,sans-Serif" font-size="14.00" fill="gray">Feature</text>
</a>
</g>
<!-- Population&#45;&gt;Feature -->
<g id="edge46" class="edge"><title>Population&#45;&gt;Feature</title>
<a xlink:href="./#currentLocation" xlink:title="currentLocation">
<path fill="none" stroke="darkslategray" d="M1887.76,-259.993C1944.34,-266.756 2029.37,-278.342 2060,-290 2072.33,-294.692 2073.1,-300.315 2085,-306 2096.36,-311.427 2123.18,-320.372 2147.24,-327.988"/>
<polygon fill="darkslategray" stroke="darkslategray" points="2146.4,-331.391 2156.99,-331.048 2148.5,-324.712 2146.4,-331.391"/>
</a>
<a xlink:href="./#currentLocation" xlink:title="currentLocation">
<text text-anchor="middle" x="2136.5" y="-293.4" font-family="Helvetica,sans-Serif" font-size="14.00">currentLocation</text>
</a>
</g>
<!-- Country -->
<g id="node57" class="node"><title>Country</title>
<a xlink:href="./#Country" xlink:title="Country">
<ellipse fill="none" stroke="gray" cx="1927" cy="-342" rx="45.1145" ry="18"/>
<text text-anchor="middle" x="1927" y="-337.4" font-family="Helvetica,sans-Serif" font-size="14.00" fill="gray">Country</text>
</a>
</g>
<!-- Population&#45;&gt;Country -->
<g id="edge62" class="edge"><title>Population&#45;&gt;Country</title>
<a xlink:href="./#nationality" xlink:title="nationality">
<path fill="none" stroke="darkslategray" d="M1872.3,-267.417C1883.96,-272.969 1896.04,-280.401 1905,-290 1911.35,-296.799 1916.01,-305.701 1919.37,-314.213"/>
<polygon fill="darkslategray" stroke="darkslategray" points="1916.14,-315.583 1922.73,-323.877 1922.75,-313.282 1916.14,-315.583"/>
</a>
<a xlink:href="./#nationality" xlink:title="nationality">
<text text-anchor="middle" x="1948.5" y="-293.4" font-family="Helvetica,sans-Serif" font-size="14.00">nationality</text>
</a>
</g>
<!-- Organisation -->
<g id="node63" class="node"><title>Organisation</title>
<a xlink:href="./#Organisation" xlink:title="Organisation">
<ellipse fill="none" stroke="gray" cx="2056" cy="-342" rx="65.9119" ry="18"/>
<text text-anchor="middle" x="2056" y="-337.4" font-family="Helvetica,sans-Serif" font-size="14.00" fill="gray">Organisation</text>
</a>
</g>
<!-- Population&#45;&gt;Organisation -->
<g id="edge72" class="edge"><title>Population&#45;&gt;Organisation</title>
<a xlink:href="./#source" xlink:title="source">
<path fill="none" stroke="darkslategray" d="M1886.75,-261.074C1916.83,-266.419 1954.65,-275.406 1986,-290 2001.54,-297.234 2017.02,-308.238 2029.46,-318.264"/>
<polygon fill="darkslategray" stroke="darkslategray" points="2027.24,-320.966 2037.17,-324.661 2031.71,-315.58 2027.24,-320.966"/>
</a>
<a xlink:href="./#source" xlink:title="source">
<text text-anchor="middle" x="2034" y="-293.4" font-family="Helvetica,sans-Serif" font-size="14.00">source</text>
</a>
</g>
<!-- AgeGroup -->
<g id="node4" class="node"><title>AgeGroup</title>
<a xlink:href="./#AgeGroup" xlink:title="AgeGroup">
<ellipse fill="none" stroke="black" cx="510" cy="-166" rx="53.838" ry="18"/>
<text text-anchor="middle" x="510" y="-161.4" font-family="Helvetica,sans-Serif" font-size="14.00">AgeGroup</text>
</a>
</g>
<!-- AgeGroupSet -->
<g id="node5" class="node"><title>AgeGroupSet</title>
<a xlink:href="./#AgeGroupSet" xlink:title="AgeGroupSet">
<ellipse fill="none" stroke="black" cx="655" cy="-254" rx="69.7653" ry="18"/>
<text text-anchor="middle" x="655" y="-249.4" font-family="Helvetica,sans-Serif" font-size="14.00">AgeGroupSet</text>
</a>
</g>
<!-- AgeGroup&#45;&gt;AgeGroupSet -->
<g id="edge54" class="edge"><title>AgeGroup&#45;&gt;AgeGroupSet</title>
<a xlink:href="./#inAgeGroupSet" xlink:title="inAgeGroupSet">
<path fill="none" stroke="darkslategray" d="M536.258,-181.936C559.328,-195.937 593.117,-216.444 618.759,-232.005"/>
<polygon fill="darkslategray" stroke="darkslategray" points="617.093,-235.088 627.457,-237.285 620.725,-229.104 617.093,-235.088"/>
</a>
<a xlink:href="./#inAgeGroupSet" xlink:title="inAgeGroupSet">
<text text-anchor="middle" x="645.5" y="-205.4" font-family="Helvetica,sans-Serif" font-size="14.00">inAgeGroupSet</text>
</a>
</g>
<!-- AgeGroup&#45;&gt;http://www.w3.org/2000/01/rdf&#45;schema#Literal -->
<g id="edge50" class="edge"><title>AgeGroup&#45;&gt;http://www.w3.org/2000/01/rdf&#45;schema#Literal</title>
<a xlink:href="./#fromAge" xlink:title="fromAge">
<path fill="none" stroke="darkslategray" d="M506.581,-184.029C501.758,-215.722 497.496,-280.478 537,-306 566.765,-325.23 741.529,-334.212 889.441,-338.394"/>
<polygon fill="darkslategray" stroke="darkslategray" points="889.499,-341.897 899.592,-338.675 889.693,-334.9 889.499,-341.897"/>
</a>
<a xlink:href="./#fromAge" xlink:title="fromAge">
<text text-anchor="middle" x="539.5" y="-249.4" font-family="Helvetica,sans-Serif" font-size="14.00">fromAge</text>
</a>
</g>
<!-- AgeGroup&#45;&gt;http://www.w3.org/2000/01/rdf&#45;schema#Literal -->
<g id="edge74" class="edge"><title>AgeGroup&#45;&gt;http://www.w3.org/2000/01/rdf&#45;schema#Literal</title>
<a xlink:href="./#toAge" xlink:title="toAge">
<path fill="none" stroke="darkslategray" d="M493.271,-183.329C481.716,-196.57 467.333,-215.91 461,-236 456.19,-251.26 453.153,-258.056 461,-272 475.28,-297.375 489.213,-297.301 517,-306 553.442,-317.409 747.482,-327.758 902.837,-334.402"/>
<polygon fill="darkslategray" stroke="darkslategray" points="902.873,-337.906 913.012,-334.834 903.17,-330.912 902.873,-337.906"/>
</a>
<a xlink:href="./#toAge" xlink:title="toAge">
<text text-anchor="middle" x="481" y="-249.4" font-family="Helvetica,sans-Serif" font-size="14.00">toAge</text>
</a>
</g>
<!-- AgeGroupSet&#45;&gt;http://www.w3.org/2000/01/rdf&#45;schema#Literal -->
<g id="edge42" class="edge"><title>AgeGroupSet&#45;&gt;http://www.w3.org/2000/01/rdf&#45;schema#Literal</title>
<a xlink:href="./#ageGroupSetDescription" xlink:title="ageGroupSetDescription">
<path fill="none" stroke="darkslategray" d="M600.355,-265.361C575.984,-271.643 551.147,-280.168 544,-290 539.819,-295.752 539.135,-300.813 544,-306 556.423,-319.246 744.078,-329.259 898.98,-335.321"/>
<polygon fill="darkslategray" stroke="darkslategray" points="899.005,-338.825 909.133,-335.715 899.276,-331.83 899.005,-338.825"/>
</a>
<a xlink:href="./#ageGroupSetDescription" xlink:title="ageGroupSetDescription">
<text text-anchor="middle" x="624" y="-293.4" font-family="Helvetica,sans-Serif" font-size="14.00">ageGroupSetDescription</text>
</a>
</g>
<!-- AgeGroupSet&#45;&gt;http://www.w3.org/2000/01/rdf&#45;schema#Literal -->
<g id="edge44" class="edge"><title>AgeGroupSet&#45;&gt;http://www.w3.org/2000/01/rdf&#45;schema#Literal</title>
<a xlink:href="./#ageGroupSetTitle" xlink:title="ageGroupSetTitle">
<path fill="none" stroke="darkslategray" d="M678.34,-271.076C698.825,-286.03 725.584,-305.467 727,-306 761.096,-318.842 836.221,-327.306 910.588,-332.778"/>
<polygon fill="darkslategray" stroke="darkslategray" points="910.371,-336.272 920.596,-333.497 910.873,-329.29 910.371,-336.272"/>
</a>
<a xlink:href="./#ageGroupSetTitle" xlink:title="ageGroupSetTitle">
<text text-anchor="middle" x="785.5" y="-293.4" font-family="Helvetica,sans-Serif" font-size="14.00">ageGroupSetTitle</text>
</a>
</g>
<!-- Casualty -->
<g id="node6" class="node"><title>Casualty</title>
<a xlink:href="./#Casualty" xlink:title="Casualty">
<ellipse fill="none" stroke="black" cx="2618" cy="-92" rx="48.9699" ry="18"/>
<text text-anchor="middle" x="2618" y="-87.4" font-family="Helvetica,sans-Serif" font-size="14.00">Casualty</text>
</a>
</g>
<!-- Casualty&#45;&gt;AffectedPopulation -->
<g id="edge4" class="edge"><title>Casualty&#45;&gt;AffectedPopulation</title>
<path fill="none" stroke="red" stroke-dasharray="5,2" d="M2577.93,-102.367C2531.31,-114.431 2453.62,-134.531 2398.04,-148.913"/>
<polygon fill="red" stroke="red" points="2397.08,-145.546 2388.28,-151.439 2398.83,-152.322 2397.08,-145.546"/>
</g>
<!-- Dead -->
<g id="node8" class="node"><title>Dead</title>
<a xlink:href="./#Dead" xlink:title="Dead">
<ellipse fill="none" stroke="black" cx="2572" cy="-18" rx="34.2118" ry="18"/>
<text text-anchor="middle" x="2572" y="-13.4" font-family="Helvetica,sans-Serif" font-size="14.00">Dead</text>
</a>
</g>
<!-- Dead&#45;&gt;Casualty -->
<g id="edge6" class="edge"><title>Dead&#45;&gt;Casualty</title>
<path fill="none" stroke="red" stroke-dasharray="5,2" d="M2582.67,-35.1631C2588.33,-44.2773 2595.42,-55.6716 2601.75,-65.8603"/>
<polygon fill="red" stroke="red" points="2598.82,-67.771 2607.07,-74.4161 2604.76,-64.0755 2598.82,-67.771"/>
</g>
<!-- Displaced -->
<g id="node10" class="node"><title>Displaced</title>
<a xlink:href="./#Displaced" xlink:title="Displaced">
<ellipse fill="none" stroke="black" cx="2033" cy="-92" rx="52.9948" ry="18"/>
<text text-anchor="middle" x="2033" y="-87.4" font-family="Helvetica,sans-Serif" font-size="14.00">Displaced</text>
</a>
</g>
<!-- Displaced&#45;&gt;AffectedPopulation -->
<g id="edge8" class="edge"><title>Displaced&#45;&gt;AffectedPopulation</title>
<path fill="none" stroke="red" stroke-dasharray="5,2" d="M2081.14,-99.8117C2118.26,-106.233 2170.73,-116.179 2216,-128 2236.44,-133.336 2258.54,-140.276 2277.92,-146.763"/>
<polygon fill="red" stroke="red" points="2276.89,-150.111 2287.48,-150.003 2279.14,-143.48 2276.89,-150.111"/>
</g>
<!-- DisplacedLocationTypeSet -->
<g id="node12" class="node"><title>DisplacedLocationTypeSet</title>
<a xlink:href="./#DisplacedLocationTypeSet" xlink:title="DisplacedLocationTypeSet">
<ellipse fill="none" stroke="black" cx="1239" cy="-254" rx="126.956" ry="18"/>
<text text-anchor="middle" x="1239" y="-249.4" font-family="Helvetica,sans-Serif" font-size="14.00">DisplacedLocationTypeSet</text>
</a>
</g>
<!-- Displaced&#45;&gt;DisplacedLocationTypeSet -->
<g id="edge56" class="edge"><title>Displaced&#45;&gt;DisplacedLocationTypeSet</title>
<a xlink:href="./#inDisplacedLocationType" xlink:title="inDisplacedLocationType">
<path fill="none" stroke="darkslategray" d="M1981,-95.5326C1896.84,-101.908 1725.91,-117.592 1584,-148 1479.76,-170.336 1361.7,-209.801 1294.22,-233.762"/>
<polygon fill="darkslategray" stroke="darkslategray" points="1292.88,-230.524 1284.64,-237.181 1295.24,-237.116 1292.88,-230.524"/>
</a>
<a xlink:href="./#inDisplacedLocationType" xlink:title="inDisplacedLocationType">
<text text-anchor="middle" x="1664.5" y="-161.4" font-family="Helvetica,sans-Serif" font-size="14.00">inDisplacedLocationType</text>
</a>
</g>
<!-- Displaced&#45;&gt;Feature -->
<g id="edge66" class="edge"><title>Displaced&#45;&gt;Feature</title>
<a xlink:href="./#placeOfOrigin" xlink:title="placeOfOrigin">
<path fill="none" stroke="darkslategray" d="M2051.92,-108.836C2086.01,-140.461 2157.07,-212.567 2188,-290 2190.91,-297.296 2192.43,-305.608 2193.16,-313.414"/>
<polygon fill="darkslategray" stroke="darkslategray" points="2189.67,-313.809 2193.72,-323.6 2196.66,-313.422 2189.67,-313.809"/>
</a>
<a xlink:href="./#placeOfOrigin" xlink:title="placeOfOrigin">
<text text-anchor="middle" x="2192" y="-205.4" font-family="Helvetica,sans-Serif" font-size="14.00">placeOfOrigin</text>
</a>
</g>
<!-- DisplacedLocationTypeSet&#45;&gt;http://www.w3.org/2000/01/rdf&#45;schema#Literal -->
<g id="edge38" class="edge"><title>DisplacedLocationTypeSet&#45;&gt;http://www.w3.org/2000/01/rdf&#45;schema#Literal</title>
<a xlink:href="./#DisplacedLocationSetTitle" xlink:title="DisplacedLocationSetTitle">
<path fill="none" stroke="darkslategray" d="M1235.38,-272.133C1232.27,-283.304 1226.69,-297.135 1217,-306 1210.54,-311.909 1203.1,-316.848 1195.2,-320.977"/>
<polygon fill="darkslategray" stroke="darkslategray" points="1193.63,-317.848 1186.1,-325.302 1196.63,-324.169 1193.63,-317.848"/>
</a>
<a xlink:href="./#DisplacedLocationSetTitle" xlink:title="DisplacedLocationSetTitle">
<text text-anchor="middle" x="1314.5" y="-293.4" font-family="Helvetica,sans-Serif" font-size="14.00">DisplacedLocationSetTitle</text>
</a>
</g>
<!-- DisplacedLocationTypeSet&#45;&gt;http://www.w3.org/2000/01/rdf&#45;schema#Literal -->
<g id="edge48" class="edge"><title>DisplacedLocationTypeSet&#45;&gt;http://www.w3.org/2000/01/rdf&#45;schema#Literal</title>
<a xlink:href="./#displacedLocationTypeSetDescription" xlink:title="displacedLocationTypeSetDescription">
<path fill="none" stroke="darkslategray" d="M1125.51,-262.171C1056.52,-268.326 979.689,-277.792 969,-290 955.955,-304.9 963.631,-315.55 980.568,-323.157"/>
<polygon fill="darkslategray" stroke="darkslategray" points="979.618,-326.541 990.208,-326.863 982.13,-320.008 979.618,-326.541"/>
</a>
<a xlink:href="./#displacedLocationTypeSetDescription" xlink:title="displacedLocationTypeSetDescription">
<text text-anchor="middle" x="1091" y="-293.4" font-family="Helvetica,sans-Serif" font-size="14.00">displacedLocationTypeSetDescription</text>
</a>
</g>
<!-- Female -->
<g id="node13" class="node"><title>Female</title>
<a xlink:href="./#Female" xlink:title="Female">
<ellipse fill="none" stroke="black" cx="43" cy="-254" rx="43.1021" ry="18"/>
<text text-anchor="middle" x="43" y="-249.4" font-family="Helvetica,sans-Serif" font-size="14.00">Female</text>
</a>
</g>
<!-- Female&#45;&gt;Sex -->
<g id="edge10" class="edge"><title>Female&#45;&gt;Sex</title>
<path fill="none" stroke="red" stroke-dasharray="5,2" d="M72.942,-267.174C109.954,-283.46 172.697,-311.067 210.745,-327.808"/>
<polygon fill="red" stroke="red" points="209.755,-331.196 220.317,-332.02 212.574,-324.789 209.755,-331.196"/>
</g>
<!-- HostPopulation -->
<g id="node16" class="node"><title>HostPopulation</title>
<a xlink:href="./#HostPopulation" xlink:title="HostPopulation">
<ellipse fill="none" stroke="black" cx="2237" cy="-18" rx="77.1443" ry="18"/>
<text text-anchor="middle" x="2237" y="-13.4" font-family="Helvetica,sans-Serif" font-size="14.00">HostPopulation</text>
</a>
</g>
<!-- NonDisplaced -->
<g id="node18" class="node"><title>NonDisplaced</title>
<a xlink:href="./#NonDisplaced" xlink:title="NonDisplaced">
<ellipse fill="none" stroke="black" cx="2332" cy="-92" rx="69.7653" ry="18"/>
<text text-anchor="middle" x="2332" y="-87.4" font-family="Helvetica,sans-Serif" font-size="14.00">NonDisplaced</text>
</a>
</g>
<!-- HostPopulation&#45;&gt;NonDisplaced -->
<g id="edge12" class="edge"><title>HostPopulation&#45;&gt;NonDisplaced</title>
<path fill="none" stroke="red" stroke-dasharray="5,2" d="M2259.51,-35.537C2272.15,-45.3765 2288.07,-57.7832 2301.78,-68.459"/>
<polygon fill="red" stroke="red" points="2299.94,-71.4602 2309.98,-74.8442 2304.24,-65.9378 2299.94,-71.4602"/>
</g>
<!-- NonDisplaced&#45;&gt;AffectedPopulation -->
<g id="edge26" class="edge"><title>NonDisplaced&#45;&gt;AffectedPopulation</title>
<path fill="none" stroke="red" stroke-dasharray="5,2" d="M2332,-110.292C2332,-118.536 2332,-128.462 2332,-137.638"/>
<polygon fill="red" stroke="red" points="2328.5,-137.918 2332,-147.918 2335.5,-137.918 2328.5,-137.918"/>
</g>
<!-- IDP -->
<g id="node19" class="node"><title>IDP</title>
<a xlink:href="./#IDP" xlink:title="IDP">
<ellipse fill="none" stroke="black" cx="2115" cy="-18" rx="27" ry="18"/>
<text text-anchor="middle" x="2115" y="-13.4" font-family="Helvetica,sans-Serif" font-size="14.00">IDP</text>
</a>
</g>
<!-- IDP&#45;&gt;Displaced -->
<g id="edge14" class="edge"><title>IDP&#45;&gt;Displaced</title>
<path fill="none" stroke="red" stroke-dasharray="5,2" d="M2098.8,-32.62C2087.59,-42.7356 2072.42,-56.426 2059.47,-68.1121"/>
<polygon fill="red" stroke="red" points="2056.83,-65.7814 2051.75,-75.0794 2061.52,-70.9782 2056.83,-65.7814"/>
</g>
<!-- Injured -->
<g id="node21" class="node"><title>Injured</title>
<a xlink:href="./#Injured" xlink:title="Injured">
<ellipse fill="none" stroke="black" cx="2664" cy="-18" rx="40.2492" ry="18"/>
<text text-anchor="middle" x="2664" y="-13.4" font-family="Helvetica,sans-Serif" font-size="14.00">Injured</text>
</a>
</g>
<!-- Injured&#45;&gt;Casualty -->
<g id="edge16" class="edge"><title>Injured&#45;&gt;Casualty</title>
<path fill="none" stroke="red" stroke-dasharray="5,2" d="M2653.1,-35.537C2647.53,-44.503 2640.63,-55.6006 2634.42,-65.5779"/>
<polygon fill="red" stroke="red" points="2631.29,-63.9918 2628.98,-74.3325 2637.23,-67.6874 2631.29,-63.9918"/>
</g>
<!-- Intersex -->
<g id="node23" class="node"><title>Intersex</title>
<a xlink:href="./#Intersex" xlink:title="Intersex">
<ellipse fill="none" stroke="black" cx="149" cy="-254" rx="45.1145" ry="18"/>
<text text-anchor="middle" x="149" y="-249.4" font-family="Helvetica,sans-Serif" font-size="14.00">Intersex</text>
</a>
</g>
<!-- Intersex&#45;&gt;Sex -->
<g id="edge18" class="edge"><title>Intersex&#45;&gt;Sex</title>
<path fill="none" stroke="red" stroke-dasharray="5,2" d="M167.124,-270.967C182.071,-284.96 203.378,-304.907 219.61,-320.103"/>
<polygon fill="red" stroke="red" points="217.428,-322.855 227.121,-327.134 222.212,-317.745 217.428,-322.855"/>
</g>
<!-- Male -->
<g id="node25" class="node"><title>Male</title>
<a xlink:href="./#Male" xlink:title="Male">
<ellipse fill="none" stroke="black" cx="243" cy="-254" rx="31.0281" ry="18"/>
<text text-anchor="middle" x="243" y="-249.4" font-family="Helvetica,sans-Serif" font-size="14.00">Male</text>
</a>
</g>
<!-- Male&#45;&gt;Sex -->
<g id="edge20" class="edge"><title>Male&#45;&gt;Sex</title>
<path fill="none" stroke="red" stroke-dasharray="5,2" d="M243,-272.234C243,-284.151 243,-299.962 243,-313.518"/>
<polygon fill="red" stroke="red" points="239.5,-313.79 243,-323.79 246.5,-313.79 239.5,-313.79"/>
</g>
<!-- Missing -->
<g id="node27" class="node"><title>Missing</title>
<a xlink:href="./#Missing" xlink:title="Missing">
<ellipse fill="none" stroke="black" cx="2764" cy="-18" rx="41.7645" ry="18"/>
<text text-anchor="middle" x="2764" y="-13.4" font-family="Helvetica,sans-Serif" font-size="14.00">Missing</text>
</a>
</g>
<!-- Missing&#45;&gt;Casualty -->
<g id="edge22" class="edge"><title>Missing&#45;&gt;Casualty</title>
<path fill="none" stroke="red" stroke-dasharray="5,2" d="M2736.88,-31.7454C2714.11,-43.2854 2681.33,-59.9008 2655.96,-72.7621"/>
<polygon fill="red" stroke="red" points="2654.31,-69.6714 2646.97,-77.3143 2657.48,-75.9152 2654.31,-69.6714"/>
</g>
<!-- MixedSex -->
<g id="node29" class="node"><title>MixedSex</title>
<a xlink:href="./#MixedSex" xlink:title="MixedSex">
<ellipse fill="none" stroke="black" cx="345" cy="-254" rx="52.9948" ry="18"/>
<text text-anchor="middle" x="345" y="-249.4" font-family="Helvetica,sans-Serif" font-size="14.00">MixedSex</text>
</a>
</g>
<!-- MixedSex&#45;&gt;Sex -->
<g id="edge24" class="edge"><title>MixedSex&#45;&gt;Sex</title>
<path fill="none" stroke="red" stroke-dasharray="5,2" d="M325.333,-270.967C308.767,-285.26 284.998,-305.766 267.254,-321.075"/>
<polygon fill="red" stroke="red" points="264.858,-318.52 259.572,-327.702 269.43,-323.82 264.858,-318.52"/>
</g>
<!-- NonHostPopulation -->
<g id="node32" class="node"><title>NonHostPopulation</title>
<a xlink:href="./#NonHostPopulation" xlink:title="NonHostPopulation">
<ellipse fill="none" stroke="black" cx="2426" cy="-18" rx="93.9149" ry="18"/>
<text text-anchor="middle" x="2426" y="-13.4" font-family="Helvetica,sans-Serif" font-size="14.00">NonHostPopulation</text>
</a>
</g>
<!-- NonHostPopulation&#45;&gt;NonDisplaced -->
<g id="edge28" class="edge"><title>NonHostPopulation&#45;&gt;NonDisplaced</title>
<path fill="none" stroke="red" stroke-dasharray="5,2" d="M2403.72,-35.537C2391.22,-45.3765 2375.46,-57.7832 2361.9,-68.459"/>
<polygon fill="red" stroke="red" points="2359.48,-65.9085 2353.79,-74.8442 2363.81,-71.4086 2359.48,-65.9085"/>
</g>
<!-- Others -->
<g id="node34" class="node"><title>Others</title>
<a xlink:href="./#Others" xlink:title="Others">
<ellipse fill="none" stroke="black" cx="1773" cy="-18" rx="40.92" ry="18"/>
<text text-anchor="middle" x="1773" y="-13.4" font-family="Helvetica,sans-Serif" font-size="14.00">Others</text>
</a>
</g>
<!-- Others&#45;&gt;Displaced -->
<g id="edge30" class="edge"><title>Others&#45;&gt;Displaced</title>
<path fill="none" stroke="red" stroke-dasharray="5,2" d="M1804.34,-29.7406C1810.49,-31.9166 1816.92,-34.1 1823,-36 1875.84,-52.5249 1937.1,-68.5045 1979.77,-79.1349"/>
<polygon fill="red" stroke="red" points="1979.11,-82.5773 1989.66,-81.5859 1980.79,-75.7829 1979.11,-82.5773"/>
</g>
<!-- RefugeesAsylumSeekers -->
<g id="node38" class="node"><title>RefugeesAsylumSeekers</title>
<a xlink:href="./#RefugeesAsylumSeekers" xlink:title="RefugeesAsylumSeekers">
<ellipse fill="none" stroke="black" cx="1951" cy="-18" rx="118.906" ry="18"/>
<text text-anchor="middle" x="1951" y="-13.4" font-family="Helvetica,sans-Serif" font-size="14.00">RefugeesAsylumSeekers</text>
</a>
</g>
<!-- RefugeesAsylumSeekers&#45;&gt;Displaced -->
<g id="edge34" class="edge"><title>RefugeesAsylumSeekers&#45;&gt;Displaced</title>
<path fill="none" stroke="red" stroke-dasharray="5,2" d="M1970.85,-35.9133C1981.56,-45.575 1994.91,-57.6278 2006.5,-68.0815"/>
<polygon fill="red" stroke="red" points="2004.41,-70.9129 2014.18,-75.0142 2009.1,-65.7161 2004.41,-70.9129"/>
</g>
<!-- TotalPopulation -->
<g id="node40" class="node"><title>TotalPopulation</title>
<a xlink:href="./#TotalPopulation" xlink:title="TotalPopulation">
<ellipse fill="none" stroke="black" cx="1834" cy="-166" rx="79.8276" ry="18"/>
<text text-anchor="middle" x="1834" y="-161.4" font-family="Helvetica,sans-Serif" font-size="14.00">TotalPopulation</text>
</a>
</g>
<!-- TotalPopulation&#45;&gt;Population -->
<g id="edge36" class="edge"><title>TotalPopulation&#45;&gt;Population</title>
<path fill="none" stroke="red" stroke-dasharray="5,2" d="M1834,-184.234C1834,-196.151 1834,-211.962 1834,-225.518"/>
<polygon fill="red" stroke="red" points="1830.5,-225.79 1834,-235.79 1837.5,-225.79 1830.5,-225.79"/>
</g>
</g>
</svg>
