<?xml version="1.0" encoding="UTF-8" standalone="no"?>
<!DOCTYPE svg PUBLIC "-//W3C//DTD SVG 1.1//EN"
 "http://www.w3.org/Graphics/SVG/1.1/DTD/svg11.dtd">
<!-- Generated by graphviz version 2.26.3 (20100126.1600)
 -->
<!-- Title: _anonymous_0 Pages: 1 -->
<svg width="894pt" height="132pt"
 viewBox="0.00 0.00 894.00 132.00" xmlns="http://www.w3.org/2000/svg" xmlns:xlink="http://www.w3.org/1999/xlink">
<g id="graph1" class="graph" transform="scale(1 1) rotate(0) translate(4 128)">
<title>_anonymous_0</title>
<polygon fill="white" stroke="white" points="-4,5 -4,-128 891,-128 891,5 -4,5"/>
<!-- ApprovalLevel -->
<g id="node1" class="node"><title>ApprovalLevel</title>
<a xlink:href="./#ApprovalLevel" xlink:title="ApprovalLevel">
<ellipse fill="none" stroke="black" cx="71" cy="-106" rx="71.107" ry="18"/>
<text text-anchor="middle" x="71" y="-101.4" font-family="Helvetica,sans-Serif" font-size="14.00">ApprovalLevel</text>
</a>
</g>
<!-- DataContainer -->
<g id="node2" class="node"><title>DataContainer</title>
<a xlink:href="./#DataContainer" xlink:title="DataContainer">
<ellipse fill="none" stroke="black" cx="404" cy="-18" rx="75.1319" ry="18"/>
<text text-anchor="middle" x="404" y="-13.4" font-family="Helvetica,sans-Serif" font-size="14.00">DataContainer</text>
</a>
</g>
<!-- DataContainer&#45;&gt;ApprovalLevel -->
<g id="edge2" class="edge"><title>DataContainer&#45;&gt;ApprovalLevel</title>
<a xlink:href="./#approvedAtLevel" xlink:title="approvedAtLevel">
<path fill="none" stroke="darkslategray" d="M334.554,-24.9119C291.447,-30.3285 235.262,-39.445 187,-54 160.746,-61.9177 132.651,-74.3991 110.687,-85.1491"/>
<polygon fill="darkslategray" stroke="darkslategray" points="109.068,-82.0453 101.672,-89.6319 112.185,-88.3131 109.068,-82.0453"/>
</a>
<a xlink:href="./#approvedAtLevel" xlink:title="approvedAtLevel">
<text text-anchor="middle" x="241.5" y="-57.4" font-family="Helvetica,sans-Serif" font-size="14.00">approvedAtLevel</text>
</a>
</g>
<!-- http://xmlns.com/foaf/0.1/Agent -->
<g id="node4" class="node"><title>http://xmlns.com/foaf/0.1/Agent</title>
<a xlink:href="./#http://xmlns.com/foaf/0.1/Agent" xlink:title="http://xmlns.com/foaf/0.1/Agent">
<ellipse fill="none" stroke="gray" cx="305" cy="-106" rx="145.068" ry="18"/>
<text text-anchor="middle" x="305" y="-101.4" font-family="Helvetica,sans-Serif" font-size="14.00" fill="gray">http://xmlns.com/foaf/0.1/Agent</text>
</a>
</g>
<!-- DataContainer&#45;&gt;http://xmlns.com/foaf/0.1/Agent -->
<g id="edge4" class="edge"><title>DataContainer&#45;&gt;http://xmlns.com/foaf/0.1/Agent</title>
<a xlink:href="./#approvedBy" xlink:title="approvedBy">
<path fill="none" stroke="darkslategray" d="M352.526,-31.1743C332.084,-37.526 311.995,-45.5853 306,-54 301.211,-60.7222 299.715,-69.2734 299.77,-77.4905"/>
<polygon fill="darkslategray" stroke="darkslategray" points="296.287,-77.8529 300.539,-87.5573 303.267,-77.3198 296.287,-77.8529"/>
</a>
<a xlink:href="./#approvedBy" xlink:title="approvedBy">
<text text-anchor="middle" x="344" y="-57.4" font-family="Helvetica,sans-Serif" font-size="14.00">approvedBy</text>
</a>
</g>
<!-- DataContainer&#45;&gt;http://xmlns.com/foaf/0.1/Agent -->
<g id="edge10" class="edge"><title>DataContainer&#45;&gt;http://xmlns.com/foaf/0.1/Agent</title>
<a xlink:href="./#reportedBy" xlink:title="reportedBy">
<path fill="none" stroke="darkslategray" d="M399.835,-36.2234C396.547,-47.1484 390.978,-60.6824 382,-70 376.861,-75.3332 370.778,-79.9589 364.318,-83.9495"/>
<polygon fill="darkslategray" stroke="darkslategray" points="362.329,-81.0522 355.328,-89.0045 365.76,-87.1536 362.329,-81.0522"/>
</a>
<a xlink:href="./#reportedBy" xlink:title="reportedBy">
<text text-anchor="middle" x="428.5" y="-57.4" font-family="Helvetica,sans-Serif" font-size="14.00">reportedBy</text>
</a>
</g>
<!-- http://www.w3.org/2000/01/rdf&#45;schema#Literal -->
<g id="node6" class="node"><title>http://www.w3.org/2000/01/rdf&#45;schema#Literal</title>
<a xlink:href="./#http://www.w3.org/2000/01/rdf-schema#Literal" xlink:title="http://www.w3.org/2000/01/rdf&#45;schema#Literal">
<ellipse fill="none" stroke="gray" cx="677" cy="-106" rx="208.796" ry="18"/>
<text text-anchor="middle" x="677" y="-101.4" font-family="Helvetica,sans-Serif" font-size="14.00" fill="gray">http://www.w3.org/2000/01/rdf&#45;schema#Literal</text>
</a>
</g>
<!-- DataContainer&#45;&gt;http://www.w3.org/2000/01/rdf&#45;schema#Literal -->
<g id="edge6" class="edge"><title>DataContainer&#45;&gt;http://www.w3.org/2000/01/rdf&#45;schema#Literal</title>
<a xlink:href="./#containsPrimaryData" xlink:title="containsPrimaryData">
<path fill="none" stroke="darkslategray" d="M434.518,-34.7036C456.176,-45.986 486.218,-60.5 514,-70 527.673,-74.6755 555.43,-81.1715 584.222,-87.36"/>
<polygon fill="darkslategray" stroke="darkslategray" points="583.497,-90.7841 594.007,-89.4438 584.955,-83.9376 583.497,-90.7841"/>
</a>
<a xlink:href="./#containsPrimaryData" xlink:title="containsPrimaryData">
<text text-anchor="middle" x="582" y="-57.4" font-family="Helvetica,sans-Serif" font-size="14.00">containsPrimaryData</text>
</a>
</g>
<!-- DataContainer&#45;&gt;http://www.w3.org/2000/01/rdf&#45;schema#Literal -->
<g id="edge8" class="edge"><title>DataContainer&#45;&gt;http://www.w3.org/2000/01/rdf&#45;schema#Literal</title>
<a xlink:href="./#containsSecondaryData" xlink:title="containsSecondaryData">
<path fill="none" stroke="darkslategray" d="M477.75,-21.4532C539.943,-25.6734 623.011,-34.7895 650,-54 658.426,-59.9979 664.419,-69.4345 668.581,-78.6321"/>
<polygon fill="darkslategray" stroke="darkslategray" points="665.345,-79.9675 672.281,-87.9763 671.853,-77.3901 665.345,-79.9675"/>
</a>
<a xlink:href="./#containsSecondaryData" xlink:title="containsSecondaryData">
<text text-anchor="middle" x="741" y="-57.4" font-family="Helvetica,sans-Serif" font-size="14.00">containsSecondaryData</text>
</a>
</g>
</g>
</svg>
