<?xml version="1.0" encoding="UTF-8" standalone="no"?>
<!DOCTYPE svg PUBLIC "-//W3C//DTD SVG 1.1//EN"
 "http://www.w3.org/Graphics/SVG/1.1/DTD/svg11.dtd">
<!-- Generated by graphviz version 2.26.3 (20100126.1600)
 -->
<!-- Title: _anonymous_0 Pages: 1 -->
<svg width="1574pt" height="280pt"
 viewBox="0.00 0.00 1574.00 280.00" xmlns="http://www.w3.org/2000/svg" xmlns:xlink="http://www.w3.org/1999/xlink">
<g id="graph1" class="graph" transform="scale(1 1) rotate(0) translate(4 276)">
<title>_anonymous_0</title>
<polygon fill="white" stroke="white" points="-4,5 -4,-276 1571,-276 1571,5 -4,5"/>
<!-- BilateralOrganisation -->
<g id="node1" class="node"><title>BilateralOrganisation</title>
<a xlink:href="./#BilateralOrganisation" xlink:title="BilateralOrganisation">
<ellipse fill="none" stroke="black" cx="102" cy="-18" rx="101.965" ry="18"/>
<text text-anchor="middle" x="102" y="-13.4" font-family="Helvetica,sans-Serif" font-size="14.00">BilateralOrganisation</text>
</a>
</g>
<!-- Organisation -->
<g id="node3" class="node"><title>Organisation</title>
<a xlink:href="./#Organisation" xlink:title="Organisation">
<ellipse fill="none" stroke="black" cx="824" cy="-92" rx="65.9119" ry="18"/>
<text text-anchor="middle" x="824" y="-87.4" font-family="Helvetica,sans-Serif" font-size="14.00">Organisation</text>
</a>
</g>
<!-- BilateralOrganisation&#45;&gt;Organisation -->
<g id="edge2" class="edge"><title>BilateralOrganisation&#45;&gt;Organisation</title>
<path fill="none" stroke="red" stroke-dasharray="5,2" d="M175.038,-30.5827C187.675,-32.5481 200.702,-34.4411 213,-36 405.849,-60.4442 634.241,-78.4953 749.502,-86.8463"/>
<polygon fill="red" stroke="red" points="749.399,-90.3478 759.624,-87.5758 749.902,-83.3659 749.399,-90.3478"/>
</g>
<!-- http://xmlns.com/foaf/0.1/Organisation -->
<g id="node11" class="node"><title>http://xmlns.com/foaf/0.1/Organisation</title>
<a xlink:href="./#http://xmlns.com/foaf/0.1/Organisation" xlink:title="http://xmlns.com/foaf/0.1/Organisation">
<ellipse fill="none" stroke="black" cx="422" cy="-180" rx="175.084" ry="18"/>
<text text-anchor="middle" x="422" y="-175.4" font-family="Helvetica,sans-Serif" font-size="14.00">http://xmlns.com/foaf/0.1/Organisation</text>
</a>
</g>
<!-- Organisation&#45;&gt;http://xmlns.com/foaf/0.1/Organisation -->
<g id="edge10" class="edge"><title>Organisation&#45;&gt;http://xmlns.com/foaf/0.1/Organisation</title>
<path fill="none" stroke="red" stroke-dasharray="5,2" d="M770.088,-102.58C734.981,-109.565 688.216,-119.047 647,-128 598.658,-138.5 544.646,-150.959 501.661,-161.049"/>
<polygon fill="red" stroke="red" points="500.758,-157.665 491.824,-163.361 502.36,-164.48 500.758,-157.665"/>
</g>
<!-- http://www.w3.org/2000/01/rdf&#45;schema#Literal -->
<g id="node21" class="node"><title>http://www.w3.org/2000/01/rdf&#45;schema#Literal</title>
<a xlink:href="./#http://www.w3.org/2000/01/rdf-schema#Literal" xlink:title="http://www.w3.org/2000/01/rdf&#45;schema#Literal">
<ellipse fill="none" stroke="gray" cx="824" cy="-180" rx="208.796" ry="18"/>
<text text-anchor="middle" x="824" y="-175.4" font-family="Helvetica,sans-Serif" font-size="14.00" fill="gray">http://www.w3.org/2000/01/rdf&#45;schema#Literal</text>
</a>
</g>
<!-- Organisation&#45;&gt;http://www.w3.org/2000/01/rdf&#45;schema#Literal -->
<g id="edge22" class="edge"><title>Organisation&#45;&gt;http://www.w3.org/2000/01/rdf&#45;schema#Literal</title>
<a xlink:href="./#orgDisplayName" xlink:title="orgDisplayName">
<path fill="none" stroke="darkslategray" d="M760.462,-97.2111C717.959,-102.168 667.439,-111.418 654,-128 649.523,-133.525 649.523,-138.475 654,-144 660.25,-151.713 674.522,-157.839 692.279,-162.685"/>
<polygon fill="darkslategray" stroke="darkslategray" points="691.921,-166.204 702.473,-165.247 693.628,-159.415 691.921,-166.204"/>
</a>
<a xlink:href="./#orgDisplayName" xlink:title="orgDisplayName">
<text text-anchor="middle" x="707" y="-131.4" font-family="Helvetica,sans-Serif" font-size="14.00">orgDisplayName</text>
</a>
</g>
<!-- Organisation&#45;&gt;http://www.w3.org/2000/01/rdf&#45;schema#Literal -->
<g id="edge24" class="edge"><title>Organisation&#45;&gt;http://www.w3.org/2000/01/rdf&#45;schema#Literal</title>
<a xlink:href="./#orgName" xlink:title="orgName">
<path fill="none" stroke="darkslategray" d="M798.217,-108.724C792.089,-114.081 786.36,-120.579 783,-128 778.768,-137.347 782.47,-146.497 789.089,-154.452"/>
<polygon fill="darkslategray" stroke="darkslategray" points="786.983,-157.301 796.494,-161.97 791.97,-152.389 786.983,-157.301"/>
</a>
<a xlink:href="./#orgName" xlink:title="orgName">
<text text-anchor="middle" x="813.5" y="-131.4" font-family="Helvetica,sans-Serif" font-size="14.00">orgName</text>
</a>
</g>
<!-- Organisation&#45;&gt;http://www.w3.org/2000/01/rdf&#45;schema#Literal -->
<g id="edge26" class="edge"><title>Organisation&#45;&gt;http://www.w3.org/2000/01/rdf&#45;schema#Literal</title>
<a xlink:href="./#orgNativeName" xlink:title="orgNativeName">
<path fill="none" stroke="darkslategray" d="M836.286,-109.923C839.435,-115.472 842.386,-121.771 844,-128 846.104,-136.121 844.487,-144.708 841.428,-152.514"/>
<polygon fill="darkslategray" stroke="darkslategray" points="838.259,-151.028 837.136,-161.563 844.584,-154.028 838.259,-151.028"/>
</a>
<a xlink:href="./#orgNativeName" xlink:title="orgNativeName">
<text text-anchor="middle" x="896" y="-131.4" font-family="Helvetica,sans-Serif" font-size="14.00">orgNativeName</text>
</a>
</g>
<!-- Organisation&#45;&gt;http://www.w3.org/2000/01/rdf&#45;schema#Literal -->
<g id="edge20" class="edge"><title>Organisation&#45;&gt;http://www.w3.org/2000/01/rdf&#45;schema#Literal</title>
<a xlink:href="./#abbreviation" xlink:title="abbreviation">
<path fill="none" stroke="darkslategray" d="M884.503,-99.4722C919.36,-105.158 958.334,-114.362 969,-128 973.381,-133.601 973.381,-138.399 969,-144 963.557,-150.96 950.741,-156.765 934.863,-161.537"/>
<polygon fill="darkslategray" stroke="darkslategray" points="933.888,-158.175 925.193,-164.228 935.765,-164.919 933.888,-158.175"/>
</a>
<a xlink:href="./#abbreviation" xlink:title="abbreviation">
<text text-anchor="middle" x="1012.5" y="-131.4" font-family="Helvetica,sans-Serif" font-size="14.00">abbreviation</text>
</a>
</g>
<!-- http://xmlns.com/foaf/0.1/Document -->
<g id="node26" class="node"><title>http://xmlns.com/foaf/0.1/Document</title>
<a xlink:href="./#http://xmlns.com/foaf/0.1/Document" xlink:title="http://xmlns.com/foaf/0.1/Document">
<ellipse fill="none" stroke="gray" cx="1215" cy="-180" rx="163.851" ry="18"/>
<text text-anchor="middle" x="1215" y="-175.4" font-family="Helvetica,sans-Serif" font-size="14.00" fill="gray">http://xmlns.com/foaf/0.1/Document</text>
</a>
</g>
<!-- Organisation&#45;&gt;http://xmlns.com/foaf/0.1/Document -->
<g id="edge28" class="edge"><title>Organisation&#45;&gt;http://xmlns.com/foaf/0.1/Document</title>
<a xlink:href="./#organisationHomepage" xlink:title="organisationHomepage">
<path fill="none" stroke="darkslategray" d="M885.586,-98.7946C932.648,-104.651 998.919,-114.333 1056,-128 1090.79,-136.33 1128.91,-148.681 1159.1,-159.257"/>
<polygon fill="darkslategray" stroke="darkslategray" points="1158.02,-162.585 1168.61,-162.62 1160.35,-155.986 1158.02,-162.585"/>
</a>
<a xlink:href="./#organisationHomepage" xlink:title="organisationHomepage">
<text text-anchor="middle" x="1185.5" y="-131.4" font-family="Helvetica,sans-Serif" font-size="14.00">organisationHomepage</text>
</a>
</g>
<!-- GovernmentOrganisation -->
<g id="node4" class="node"><title>GovernmentOrganisation</title>
<a xlink:href="./#GovernmentOrganisation" xlink:title="GovernmentOrganisation">
<ellipse fill="none" stroke="black" cx="342" cy="-18" rx="120.077" ry="18"/>
<text text-anchor="middle" x="342" y="-13.4" font-family="Helvetica,sans-Serif" font-size="14.00">GovernmentOrganisation</text>
</a>
</g>
<!-- GovernmentOrganisation&#45;&gt;Organisation -->
<g id="edge4" class="edge"><title>GovernmentOrganisation&#45;&gt;Organisation</title>
<path fill="none" stroke="red" stroke-dasharray="5,2" d="M425.958,-30.8898C519.748,-45.2891 669.743,-68.3173 756.336,-81.6117"/>
<polygon fill="red" stroke="red" points="755.901,-85.0858 766.316,-83.1439 756.963,-78.1669 755.901,-85.0858"/>
</g>
<!-- InterGovernmentalOrganisation -->
<g id="node6" class="node"><title>InterGovernmentalOrganisation</title>
<a xlink:href="./#InterGovernmentalOrganisation" xlink:title="InterGovernmentalOrganisation">
<ellipse fill="none" stroke="black" cx="627" cy="-18" rx="147.08" ry="18"/>
<text text-anchor="middle" x="627" y="-13.4" font-family="Helvetica,sans-Serif" font-size="14.00">InterGovernmentalOrganisation</text>
</a>
</g>
<!-- InterGovernmentalOrganisation&#45;&gt;Organisation -->
<g id="edge6" class="edge"><title>InterGovernmentalOrganisation&#45;&gt;Organisation</title>
<path fill="none" stroke="red" stroke-dasharray="5,2" d="M672.691,-35.1631C703.593,-46.7711 744.341,-62.0774 775.765,-73.8813"/>
<polygon fill="red" stroke="red" points="774.605,-77.1841 785.197,-77.4242 777.066,-70.6312 774.605,-77.1841"/>
</g>
<!-- NGO -->
<g id="node8" class="node"><title>NGO</title>
<a xlink:href="./#NGO" xlink:title="NGO">
<ellipse fill="none" stroke="black" cx="824" cy="-18" rx="32.1994" ry="18"/>
<text text-anchor="middle" x="824" y="-13.4" font-family="Helvetica,sans-Serif" font-size="14.00">NGO</text>
</a>
</g>
<!-- NGO&#45;&gt;Organisation -->
<g id="edge8" class="edge"><title>NGO&#45;&gt;Organisation</title>
<path fill="none" stroke="red" stroke-dasharray="5,2" d="M824,-36.2921C824,-44.5365 824,-54.4624 824,-63.6378"/>
<polygon fill="red" stroke="red" points="820.5,-63.9182 824,-73.9183 827.5,-63.9183 820.5,-63.9182"/>
</g>
<!-- http://xmlns.com/foaf/0.1/Agent -->
<g id="node19" class="node"><title>http://xmlns.com/foaf/0.1/Agent</title>
<a xlink:href="./#http://xmlns.com/foaf/0.1/Organisation" xlink:title="http://xmlns.com/foaf/0.1/Agent">
<ellipse fill="none" stroke="gray" cx="422" cy="-254" rx="145.068" ry="18"/>
<text text-anchor="middle" x="422" y="-249.4" font-family="Helvetica,sans-Serif" font-size="14.00" fill="gray">http://xmlns.com/foaf/0.1/Agent</text>
</a>
</g>
<!-- http://xmlns.com/foaf/0.1/Organisation&#45;&gt;http://xmlns.com/foaf/0.1/Agent -->
<g id="edge18" class="edge"><title>http://xmlns.com/foaf/0.1/Organisation&#45;&gt;http://xmlns.com/foaf/0.1/Agent</title>
<path fill="none" stroke="red" stroke-dasharray="5,2" d="M422,-198.292C422,-206.536 422,-216.462 422,-225.638"/>
<polygon fill="red" stroke="red" points="418.5,-225.918 422,-235.918 425.5,-225.918 418.5,-225.918"/>
</g>
<!-- PrivateOrganisation -->
<g id="node12" class="node"><title>PrivateOrganisation</title>
<a xlink:href="./#PrivateOrganisation" xlink:title="PrivateOrganisation">
<ellipse fill="none" stroke="black" cx="972" cy="-18" rx="97.9398" ry="18"/>
<text text-anchor="middle" x="972" y="-13.4" font-family="Helvetica,sans-Serif" font-size="14.00">PrivateOrganisation</text>
</a>
</g>
<!-- PrivateOrganisation&#45;&gt;Organisation -->
<g id="edge12" class="edge"><title>PrivateOrganisation&#45;&gt;Organisation</title>
<path fill="none" stroke="red" stroke-dasharray="5,2" d="M938.046,-34.9771C916.294,-45.8531 887.936,-60.0321 864.939,-71.5303"/>
<polygon fill="red" stroke="red" points="863.15,-68.5118 855.771,-76.1145 866.281,-74.7728 863.15,-68.5118"/>
</g>
<!-- RedCrossRedCrescent -->
<g id="node14" class="node"><title>RedCrossRedCrescent</title>
<a xlink:href="./#RedCrossRedCrescent" xlink:title="RedCrossRedCrescent">
<ellipse fill="none" stroke="black" cx="1200" cy="-18" rx="112.027" ry="18"/>
<text text-anchor="middle" x="1200" y="-13.4" font-family="Helvetica,sans-Serif" font-size="14.00">RedCrossRedCrescent</text>
</a>
</g>
<!-- RedCrossRedCrescent&#45;&gt;Organisation -->
<g id="edge14" class="edge"><title>RedCrossRedCrescent&#45;&gt;Organisation</title>
<path fill="none" stroke="red" stroke-dasharray="5,2" d="M1128.84,-32.0058C1059.27,-45.6961 954.357,-66.3447 887.534,-79.4959"/>
<polygon fill="red" stroke="red" points="886.69,-76.0948 877.555,-81.46 888.042,-82.963 886.69,-76.0948"/>
</g>
<!-- Response -->
<g id="node16" class="node"><title>Response</title>
<a xlink:href="./#Response" xlink:title="Response">
<ellipse fill="none" stroke="black" cx="1513" cy="-18" rx="53.1641" ry="18"/>
<text text-anchor="middle" x="1513" y="-13.4" font-family="Helvetica,sans-Serif" font-size="14.00">Response</text>
</a>
</g>
<!-- UNAgency -->
<g id="node17" class="node"><title>UNAgency</title>
<a xlink:href="./#UNAgency" xlink:title="UNAgency">
<ellipse fill="none" stroke="black" cx="1386" cy="-18" rx="55.8503" ry="18"/>
<text text-anchor="middle" x="1386" y="-13.4" font-family="Helvetica,sans-Serif" font-size="14.00">UNAgency</text>
</a>
</g>
<!-- UNAgency&#45;&gt;Organisation -->
<g id="edge16" class="edge"><title>UNAgency&#45;&gt;Organisation</title>
<path fill="none" stroke="red" stroke-dasharray="5,2" d="M1344.97,-30.4168C1337.07,-32.5078 1328.82,-34.487 1321,-36 1172.59,-64.7233 996.192,-80.278 898.503,-87.2913"/>
<polygon fill="red" stroke="red" points="898.16,-83.8067 888.432,-88.0039 898.654,-90.7892 898.16,-83.8067"/>
</g>
</g>
</svg>
