<?xml version="1.0" encoding="UTF-8" standalone="no"?>
<!DOCTYPE svg PUBLIC "-//W3C//DTD SVG 1.1//EN"
 "http://www.w3.org/Graphics/SVG/1.1/DTD/svg11.dtd">
<!-- Generated by graphviz version 2.26.3 (20100126.1600)
 -->
<!-- Title: _anonymous_0 Pages: 1 -->
<svg width="735pt" height="220pt"
 viewBox="0.00 0.00 735.00 220.00" xmlns="http://www.w3.org/2000/svg" xmlns:xlink="http://www.w3.org/1999/xlink">
<g id="graph1" class="graph" transform="scale(1 1) rotate(0) translate(4 216)">
<title>_anonymous_0</title>
<polygon fill="white" stroke="white" points="-4,5 -4,-216 732,-216 732,5 -4,5"/>
<!-- Emergency -->
<g id="node1" class="node"><title>Emergency</title>
<a xlink:href="./#Emergency" xlink:title="Emergency">
<ellipse fill="none" stroke="black" cx="278" cy="-18" rx="59.8749" ry="18"/>
<text text-anchor="middle" x="278" y="-13.4" font-family="Helvetica,sans-Serif" font-size="14.00">Emergency</text>
</a>
</g>
<!-- Situation -->
<g id="node3" class="node"><title>Situation</title>
<a xlink:href="./#Situation" xlink:title="Situation">
<ellipse fill="none" stroke="black" cx="209" cy="-106" rx="49.1393" ry="18"/>
<text text-anchor="middle" x="209" y="-101.4" font-family="Helvetica,sans-Serif" font-size="14.00">Situation</text>
</a>
</g>
<!-- Emergency&#45;&gt;Situation -->
<g id="edge2" class="edge"><title>Emergency&#45;&gt;Situation</title>
<path fill="none" stroke="red" stroke-dasharray="5,2" d="M264.037,-35.8081C253.964,-48.6548 240.218,-66.1852 228.984,-80.5126"/>
<polygon fill="red" stroke="red" points="226.123,-78.4897 222.707,-88.5187 231.632,-82.8089 226.123,-78.4897"/>
</g>
<!-- GLIDEnumber -->
<g id="node4" class="node"><title>GLIDEnumber</title>
<a xlink:href="./#GLIDEnumber" xlink:title="GLIDEnumber">
<ellipse fill="none" stroke="black" cx="347" cy="-106" rx="71.107" ry="18"/>
<text text-anchor="middle" x="347" y="-101.4" font-family="Helvetica,sans-Serif" font-size="14.00">GLIDEnumber</text>
</a>
</g>
<!-- Emergency&#45;&gt;GLIDEnumber -->
<g id="edge8" class="edge"><title>Emergency&#45;&gt;GLIDEnumber</title>
<a xlink:href="./#hasGLIDEnumber" xlink:title="hasGLIDEnumber">
<path fill="none" stroke="darkslategray" d="M291.963,-35.8081C301.97,-48.5709 315.602,-65.9562 326.795,-80.2313"/>
<polygon fill="darkslategray" stroke="darkslategray" points="324.133,-82.5086 333.058,-88.2184 329.642,-78.1893 324.133,-82.5086"/>
</a>
<a xlink:href="./#hasGLIDEnumber" xlink:title="hasGLIDEnumber">
<text text-anchor="middle" x="375" y="-57.4" font-family="Helvetica,sans-Serif" font-size="14.00">hasGLIDEnumber</text>
</a>
</g>
<!-- http://www.w3.org/2000/01/rdf&#45;schema#Literal -->
<g id="node8" class="node"><title>http://www.w3.org/2000/01/rdf&#45;schema#Literal</title>
<a xlink:href="./#http://www.w3.org/2000/01/rdf-schema#Literal" xlink:title="http://www.w3.org/2000/01/rdf&#45;schema#Literal">
<ellipse fill="none" stroke="gray" cx="209" cy="-194" rx="208.796" ry="18"/>
<text text-anchor="middle" x="209" y="-189.4" font-family="Helvetica,sans-Serif" font-size="14.00" fill="gray">http://www.w3.org/2000/01/rdf&#45;schema#Literal</text>
</a>
</g>
<!-- Situation&#45;&gt;http://www.w3.org/2000/01/rdf&#45;schema#Literal -->
<g id="edge6" class="edge"><title>Situation&#45;&gt;http://www.w3.org/2000/01/rdf&#45;schema#Literal</title>
<a xlink:href="./#commonTitle" xlink:title="commonTitle">
<path fill="none" stroke="darkslategray" d="M177.79,-120.08C169.16,-125.608 160.842,-132.858 156,-142 150.532,-152.324 155.578,-161.855 164.378,-169.86"/>
<polygon fill="darkslategray" stroke="darkslategray" points="162.47,-172.811 172.505,-176.21 166.78,-167.295 162.47,-172.811"/>
</a>
<a xlink:href="./#commonTitle" xlink:title="commonTitle">
<text text-anchor="middle" x="198.5" y="-145.4" font-family="Helvetica,sans-Serif" font-size="14.00">commonTitle</text>
</a>
</g>
<!-- Situation&#45;&gt;http://www.w3.org/2000/01/rdf&#45;schema#Literal -->
<g id="edge10" class="edge"><title>Situation&#45;&gt;http://www.w3.org/2000/01/rdf&#45;schema#Literal</title>
<a xlink:href="./#situationDescription" xlink:title="situationDescription">
<path fill="none" stroke="darkslategray" d="M229.047,-122.951C238.069,-132.724 245.747,-145.516 241,-158 239.674,-161.488 237.838,-164.854 235.71,-168.034"/>
<polygon fill="darkslategray" stroke="darkslategray" points="232.912,-165.931 229.544,-175.976 238.441,-170.223 232.912,-165.931"/>
</a>
<a xlink:href="./#situationDescription" xlink:title="situationDescription">
<text text-anchor="middle" x="306.5" y="-145.4" font-family="Helvetica,sans-Serif" font-size="14.00">situationDescription</text>
</a>
</g>
<!-- http://xmlns.com/foaf/0.1/Agent -->
<g id="node5" class="node"><title>http://xmlns.com/foaf/0.1/Agent</title>
<a xlink:href="./#http://xmlns.com/foaf/0.1/Agent" xlink:title="http://xmlns.com/foaf/0.1/Agent">
<ellipse fill="none" stroke="black" cx="581" cy="-106" rx="145.068" ry="18"/>
<text text-anchor="middle" x="581" y="-101.4" font-family="Helvetica,sans-Serif" font-size="14.00">http://xmlns.com/foaf/0.1/Agent</text>
</a>
</g>
<!-- http://xmlns.com/foaf/0.1/Group -->
<g id="node6" class="node"><title>http://xmlns.com/foaf/0.1/Group</title>
<a xlink:href="./#http://xmlns.com/foaf/0.1/Group" xlink:title="http://xmlns.com/foaf/0.1/Group">
<ellipse fill="none" stroke="black" cx="581" cy="-18" rx="146.239" ry="18"/>
<text text-anchor="middle" x="581" y="-13.4" font-family="Helvetica,sans-Serif" font-size="14.00">http://xmlns.com/foaf/0.1/Group</text>
</a>
</g>
<!-- http://xmlns.com/foaf/0.1/Group&#45;&gt;http://xmlns.com/foaf/0.1/Agent -->
<g id="edge4" class="edge"><title>http://xmlns.com/foaf/0.1/Group&#45;&gt;http://xmlns.com/foaf/0.1/Agent</title>
<path fill="none" stroke="red" stroke-dasharray="5,2" d="M581,-36.2337C581,-48.1508 581,-63.9616 581,-77.5183"/>
<polygon fill="red" stroke="red" points="577.5,-77.7897 581,-87.7897 584.5,-77.7897 577.5,-77.7897"/>
</g>
</g>
</svg>
